<?xml version="1.0" encoding="UTF-8" standalone="no"?>
<svg
   viewbox="0 0 200 200"
   version="1.1"
   id="svg4"
   sodipodi:docname="folder-network.svg"
   width="16"
   height="16"
   inkscape:version="1.1.1 (3bf5ae0d25, 2021-09-20, custom)"
   xmlns:inkscape="http://www.inkscape.org/namespaces/inkscape"
   xmlns:sodipodi="http://sodipodi.sourceforge.net/DTD/sodipodi-0.dtd"
   xmlns="http://www.w3.org/2000/svg"
   xmlns:svg="http://www.w3.org/2000/svg">
  <defs
     id="defs8" />
  <sodipodi:namedview
     id="namedview6"
     pagecolor="#ffffff"
     bordercolor="#666666"
     borderopacity="1.0"
     inkscape:pageshadow="2"
     inkscape:pageopacity="0.0"
     inkscape:pagecheckerboard="0"
     showgrid="false"
     inkscape:zoom="27.749954"
     inkscape:cx="7.1711829"
     inkscape:cy="11.117135"
     inkscape:window-width="1920"
     inkscape:window-height="1000"
     inkscape:window-x="0"
     inkscape:window-y="0"
     inkscape:window-maximized="1"
     inkscape:current-layer="svg4"
     showguides="true" />
  <path
     id="path4921"
     style="fill:#363636;fill-opacity:1;stroke-width:0.875;stroke-linecap:round;stroke-linejoin:round"
     d="m 3.75,2.0000235 c -0.9664983,0 -1.75,0.7835017 -1.75,1.75 0,0.9664983 0.7835017,1.75 1.75,1.75 0.5703295,-0.00363 1.1031094,-0.2849627 1.427734,-0.753906 L 10.57422,7.523484 C 10.5276,7.678151 10.50263,7.838528 10.5,8.000047 c 8.58e-4,0.124188 0.01493,0.247932 0.04199,0.36914 L 5.121092,11.163086 C 4.7892476,10.744344 4.2842904,10.500136 3.75,10.5 2.7835017,10.5 2,11.283503 2,12.25 2,13.216498 2.7835017,14 3.75,14 4.7164983,14 5.5,13.216498 5.5,12.25 5.4999276,12.20731 5.49829,12.16464 5.4951,12.122071 l 5.539062,-2.87886 c 0.323802,0.3208475 0.760016,0.5026895 1.215838,0.5068365 0.966499,0 1.75,-0.7835025 1.75,-1.7500005 0,-0.966498 -0.783501,-1.75 -1.75,-1.75 -0.418741,0.00238 -0.822747,0.1548375 -1.138672,0.429687 L 5.5,3.7519765 v -0.002 c 0,-0.9664983 -0.7835017,-1.75 -1.75,-1.75 z m 0,1 c 0.4142136,0 0.75,0.3357864 0.75,0.75 0,0.4142136 -0.3357864,0.75 -0.75,0.75 -0.4142136,0 -0.75,-0.3357864 -0.75,-0.75 0,-0.4142136 0.3357864,-0.75 0.75,-0.75 z m 8.5,4.2500235 c 0.414214,0 0.75,0.335786 0.75,0.75 0,0.414214 -0.335786,0.75 -0.75,0.75 -0.414213,0 -0.75,-0.335786 -0.75,-0.75 0,-0.414214 0.335787,-0.75 0.75,-0.75 z M 3.75,11.5 c 0.4142136,0 0.75,0.335787 0.75,0.75 C 4.5,12.664214 4.1642136,13 3.75,13 3.3357864,13 3,12.664214 3,12.25 3,11.835787 3.3357864,11.5 3.75,11.5 Z"
     sodipodi:nodetypes="cscccccccssccccscccsccsssssssssssssss" />
</svg>
