<?xml version="1.0" encoding="UTF-8" standalone="no"?>
<!-- Created with Inkscape (http://www.inkscape.org/) -->

<svg
   width="16"
   height="16"
   viewBox="0 0 4.2333332 4.2333335"
   version="1.1"
   id="svg11945"
   inkscape:version="1.1.1 (3bf5ae0d25, 2021-09-20)"
   sodipodi:docname="accessories-camera-symbolic.svg"
   xmlns:inkscape="http://www.inkscape.org/namespaces/inkscape"
   xmlns:sodipodi="http://sodipodi.sourceforge.net/DTD/sodipodi-0.dtd"
   xmlns="http://www.w3.org/2000/svg"
   xmlns:svg="http://www.w3.org/2000/svg">
  <sodipodi:namedview
     id="namedview11947"
     pagecolor="#ffffff"
     bordercolor="#666666"
     borderopacity="1.0"
     inkscape:pageshadow="2"
     inkscape:pageopacity="0.0"
     inkscape:pagecheckerboard="0"
     inkscape:document-units="px"
     showgrid="false"
     units="in"
     inkscape:zoom="52.25"
     inkscape:cx="8"
     inkscape:cy="8"
     inkscape:window-width="1920"
     inkscape:window-height="1009"
     inkscape:window-x="-8"
     inkscape:window-y="-8"
     inkscape:window-maximized="1"
     inkscape:current-layer="svg11945" />
  <defs
     id="defs11942" />
  <path
     id="rect12028"
     style="fill:#555555;stroke-width:0.999999"
     d="M 3 3 C 1.8919999 3 1 3.8919998 1 5 L 1 11 C 1 12.108 1.8919999 13 3 13 L 13 13 C 14.108 13 15 12.108 15 11 L 15 5 C 15 3.8919998 14.108 3 13 3 L 3 3 z M 13 4 A 1.0000001 1.0000001 0 0 1 14 5 A 1.0000001 1.0000001 0 0 1 13 6 A 1.0000001 1.0000001 0 0 1 12 5 A 1.0000001 1.0000001 0 0 1 13 4 z M 8 5 A 2.9999999 2.9999999 0 0 1 11 8 A 2.9999999 2.9999999 0 0 1 8 11 A 2.9999999 2.9999999 0 0 1 5 8 A 2.9999999 2.9999999 0 0 1 8 5 z "
     transform="scale(0.26458333)" />
</svg>
