<?xml version="1.0" encoding="UTF-8" standalone="no"?>
<!-- Created with Inkscape (http://www.inkscape.org/) -->

<svg
   width="24"
   height="24"
   viewBox="0 0 6.3499997 6.3500003"
   version="1.1"
   id="svg11945"
   inkscape:version="1.1.1 (3bf5ae0d25, 2021-09-20, custom)"
   sodipodi:docname="folder-documents.svg"
   xmlns:inkscape="http://www.inkscape.org/namespaces/inkscape"
   xmlns:sodipodi="http://sodipodi.sourceforge.net/DTD/sodipodi-0.dtd"
   xmlns="http://www.w3.org/2000/svg"
   xmlns:svg="http://www.w3.org/2000/svg">
  <sodipodi:namedview
     id="namedview11947"
     pagecolor="#ffffff"
     bordercolor="#666666"
     borderopacity="1.0"
     inkscape:pageshadow="2"
     inkscape:pageopacity="0.0"
     inkscape:pagecheckerboard="0"
     inkscape:document-units="px"
     showgrid="false"
     units="in"
     inkscape:zoom="11.313709"
     inkscape:cx="-6.4965433"
     inkscape:cy="15.46796"
     inkscape:window-width="1920"
     inkscape:window-height="1006"
     inkscape:window-x="0"
     inkscape:window-y="0"
     inkscape:window-maximized="1"
     inkscape:current-layer="svg11945"
     showguides="true" />
  <defs
     id="defs11942" />
  <path
     id="rect843"
     style="fill:#363636;fill-opacity:1;stroke-width:1.32292;stroke-linecap:round;stroke-linejoin:round"
     d="M 2.1166666,1.0583333 C 1.8235083,1.0583333 1.5875,1.2943416 1.5875,1.5875 v 3.1749999 c 0,0.2931584 0.2360083,0.5291667 0.5291666,0.5291667 H 4.2333333 C 4.5264917,5.2916666 4.7625,5.0556583 4.7625,4.7624999 V 2.5135417 C 4.763426,2.2911546 4.7163675,2.2038927 4.6302083,2.1166667 L 3.7041667,1.190625 C 3.5816725,1.0771732 3.491309,1.0583333 3.3072917,1.0583333 Z m 0,0.2645833 H 3.175 v 0.79375 c 0,0.2931584 0.2479007,0.5291667 0.5291667,0.5291667 h 0.79375 v 2.1166666 c 0,0.1465792 -0.1180042,0.2645834 -0.2645834,0.2645834 H 2.1166666 c -0.1465791,0 -0.2645833,-0.1180042 -0.2645833,-0.2645834 V 1.5875 c 0,-0.1465792 0.1180042,-0.2645834 0.2645833,-0.2645834 z m 1.3229168,0 1.0583333,1.0583334 h -0.79375 c -0.1465792,0 -0.2645833,-0.1180042 -0.2645833,-0.2645834 z"
     sodipodi:nodetypes="ssssssccccsscsscssssssccssc" />
</svg>
