<?xml version="1.0" encoding="UTF-8" standalone="no"?>
<!-- Created with Inkscape (http://www.inkscape.org/) -->

<svg
   width="24"
   height="24"
   viewBox="0 0 6.3499997 6.3500004"
   version="1.1"
   id="svg11945"
   inkscape:version="1.1.1 (3bf5ae0d25, 2021-09-20, custom)"
   sodipodi:docname="folder-downloads.svg"
   xmlns:inkscape="http://www.inkscape.org/namespaces/inkscape"
   xmlns:sodipodi="http://sodipodi.sourceforge.net/DTD/sodipodi-0.dtd"
   xmlns="http://www.w3.org/2000/svg"
   xmlns:svg="http://www.w3.org/2000/svg">
  <sodipodi:namedview
     id="namedview11947"
     pagecolor="#ffffff"
     bordercolor="#666666"
     borderopacity="1.0"
     inkscape:pageshadow="2"
     inkscape:pageopacity="0.0"
     inkscape:pagecheckerboard="0"
     inkscape:document-units="px"
     showgrid="false"
     units="in"
     inkscape:zoom="16"
     inkscape:cx="5.53125"
     inkscape:cy="9.625"
     inkscape:window-width="1920"
     inkscape:window-height="1006"
     inkscape:window-x="0"
     inkscape:window-y="0"
     inkscape:window-maximized="1"
     inkscape:current-layer="svg11945"
     showguides="false" />
  <defs
     id="defs11942" />
  <path
     id="path8764"
     style="fill:#363636;fill-opacity:1;stroke-width:1.32292;stroke-linecap:round;stroke-linejoin:round"
     d="m 3.0427084,1.0583333 c -0.07329,0 -0.1322917,0.059002 -0.1322917,0.1322917 V 4.3036132 L 1.6783885,3.071676 c -0.051824,-0.051824 -0.1352447,-0.051824 -0.1870686,0 -0.051824,0.051823 -0.051824,0.1352447 0,0.1870687 l 1.4190968,1.4153886 c 0.062993,0.066788 0.086046,0.088909 0.1322917,0.088367 0.048006,3.191e-4 0.088538,-0.040081 0.1322917,-0.088884 L 4.594097,3.2587447 c 0.051824,-0.051824 0.051824,-0.1352453 0,-0.1870687 -0.051824,-0.051824 -0.1352452,-0.051824 -0.1870686,0 L 3.1750001,4.3036132 V 1.190625 c 0,-0.07329 -0.059002,-0.1322917 -0.1322917,-0.1322917 z m -1.5875,3.9687499 c -0.07329,0 -0.1322917,0.059002 -0.1322917,0.1322917 0,0.07329 0.059002,0.1322917 0.1322917,0.1322917 h 3.175 c 0.07329,0 0.1322916,-0.059002 0.1322916,-0.1322917 0,-0.07329 -0.059002,-0.1322917 -0.1322916,-0.1322917 z"
     sodipodi:nodetypes="ssccccccccsccsssssssss" />
</svg>
