<?xml version="1.0" encoding="UTF-8" standalone="no"?>
<!-- Created with Inkscape (http://www.inkscape.org/) -->

<svg
   width="24"
   height="24"
   viewBox="0 0 6.3499997 6.3500004"
   version="1.1"
   id="svg11945"
   inkscape:version="1.1.1 (3bf5ae0d25, 2021-09-20, custom)"
   sodipodi:docname="folder-music.svg"
   xmlns:inkscape="http://www.inkscape.org/namespaces/inkscape"
   xmlns:sodipodi="http://sodipodi.sourceforge.net/DTD/sodipodi-0.dtd"
   xmlns="http://www.w3.org/2000/svg"
   xmlns:svg="http://www.w3.org/2000/svg">
  <sodipodi:namedview
     id="namedview11947"
     pagecolor="#ffffff"
     bordercolor="#666666"
     borderopacity="1.0"
     inkscape:pageshadow="2"
     inkscape:pageopacity="0.0"
     inkscape:pagecheckerboard="0"
     inkscape:document-units="px"
     showgrid="false"
     units="in"
     inkscape:zoom="32"
     inkscape:cx="9.328125"
     inkscape:cy="13.046875"
     inkscape:window-width="1920"
     inkscape:window-height="1011"
     inkscape:window-x="0"
     inkscape:window-y="0"
     inkscape:window-maximized="1"
     inkscape:current-layer="svg11945"
     showguides="true" />
  <defs
     id="defs11942" />
  <path
     id="rect17629"
     style="opacity:1;fill:#363636;fill-opacity:1;stroke-width:0.264583"
     d="m 3.3072916,1.0583333 c -0.00865,0 -0.017148,0.00101 -0.025321,0.00258 -0.00862,0.00165 -0.016879,0.00401 -0.024805,0.00723 -4.921e-4,2.001e-4 -0.00106,3.131e-4 -0.00155,5.168e-4 -0.00605,0.00255 -0.011507,0.00592 -0.017053,0.0093 -0.00139,6.64e-4 -0.00277,0.00135 -0.00413,0.00207 -3.943e-4,2.604e-4 -6.427e-4,7.685e-4 -0.00103,0.00103 -5.186e-4,3.413e-4 -0.00104,6.838e-4 -0.00155,0.00103 -0.00625,0.00435 -0.012175,0.00913 -0.01757,0.014469 l -5.17e-4,5.168e-4 c -0.0051,0.0051 -0.00974,0.010663 -0.013952,0.016537 -6.985e-4,8.519e-4 -0.00139,0.00171 -0.00207,0.00258 v 5.167e-4 c -8.813e-4,0.00119 -0.00174,0.0024 -0.00258,0.00362 -0.00373,0.00595 -0.00706,0.012061 -0.00982,0.018603 -0.00299,0.0071 -0.00551,0.01454 -0.00723,0.022221 -1.778e-4,6.879e-4 -3.503e-4,0.00138 -5.167e-4,0.00207 v 5.168e-4 c -1.6e-6,3.44e-4 -1.6e-6,6.865e-4 0,0.00103 -0.00147,0.0075 -0.00243,0.015355 -0.00258,0.023254 -1.3e-6,3.44e-4 -1.3e-6,6.864e-4 0,0.00103 v 5.168e-4 c -1.6e-6,3.512e-4 0,6.811e-4 0,0.00103 v 2.162139 C 2.9489683,3.0730173 2.6086111,2.9104312 2.2489583,2.9104166 c -0.6575641,-10e-8 -1.190625,0.5330608 -1.190625,1.190625 0,0.6575642 0.5330609,1.190625 1.190625,1.190625 0.6110636,-3.689e-4 1.1226416,-0.4632677 1.183907,-1.0712524 l 0.00672,-0.1193726 V 1.3260172 c 0.6581897,0.039193 1.2314573,0.6371864 1.403015,0.9803019 0.1826162,0.365232 0.1834515,0.7358724 0.1834515,0.7358724 7.938e-4,0.072682 0.060123,0.1310863 0.1328084,0.1307415 0.072685,3.44e-4 0.1320131,-0.058059 0.1328084,-0.1307415 0,0 0.00124,-0.4243711 -0.212907,-0.8526611 C 4.8646156,1.7612406 4.1453935,1.0583333 3.3078084,1.0583333 Z M 2.2489583,3.1749999 A 0.92604165,0.92604165 0 0 1 3.175,4.1010416 0.92604165,0.92604165 0 0 1 2.2489583,5.0270832 0.92604165,0.92604165 0 0 1 1.3229167,4.1010416 0.92604165,0.92604165 0 0 1 2.2489583,3.1749999 Z" />
</svg>
