<?xml version="1.0" encoding="UTF-8" standalone="no"?>
<!-- Created with Inkscape (http://www.inkscape.org/) -->

<svg
   width="24"
   height="24"
   viewBox="0 0 6.3499997 6.3500003"
   version="1.1"
   id="svg11945"
   inkscape:version="1.1.1 (3bf5ae0d25, 2021-09-20, custom)"
   sodipodi:docname="network-workgroup.svg"
   xmlns:inkscape="http://www.inkscape.org/namespaces/inkscape"
   xmlns:sodipodi="http://sodipodi.sourceforge.net/DTD/sodipodi-0.dtd"
   xmlns="http://www.w3.org/2000/svg"
   xmlns:svg="http://www.w3.org/2000/svg">
  <sodipodi:namedview
     id="namedview11947"
     pagecolor="#ffffff"
     bordercolor="#666666"
     borderopacity="1.0"
     inkscape:pageshadow="2"
     inkscape:pageopacity="0.0"
     inkscape:pagecheckerboard="0"
     inkscape:document-units="px"
     showgrid="false"
     units="in"
     inkscape:zoom="32"
     inkscape:cx="6.046875"
     inkscape:cy="12.3125"
     inkscape:window-width="1920"
     inkscape:window-height="1006"
     inkscape:window-x="0"
     inkscape:window-y="0"
     inkscape:window-maximized="1"
     inkscape:current-layer="svg11945"
     showguides="false" />
  <defs
     id="defs11942" />
  <path
     id="path1050"
     style="fill:#363636;stroke-width:0.291539"
     d="M 3.1749533,1.3229167 A 1.8520833,1.8520833 0 0 0 1.9011292,1.8314128 2.3812498,0.79374994 30 0 0 1.6127747,1.8004069 2.3812498,0.79374994 30 0 0 1.1125469,1.984375 2.3812498,0.79374994 30 0 0 1.3740296,2.7460856 1.8520833,1.8520833 0 0 0 1.32287,3.175 1.8520833,1.8520833 0 0 0 3.1749533,5.0270833 1.8520833,1.8520833 0 0 0 4.4472271,4.5206544 2.3812498,0.79374994 30 0 0 5.2373597,4.365625 2.3812498,0.79374994 30 0 0 4.975877,3.6059814 1.8520833,1.8520833 0 0 0 5.0270366,3.175 1.8520833,1.8520833 0 0 0 3.1749533,1.3229167 Z m 0,0.2645833 a 1.5875,1.5875 0 0 1 1.5875,1.5875 1.5875,1.5875 0 0 1 -0.01447,0.2036051 1.5875,1.5875 0 0 1 -0.017571,0.1064535 1.5875,1.5875 0 0 1 -0.00568,0.026872 A 1.5875,1.5875 0 0 1 4.6968236,3.6220011 1.5875,1.5875 0 0 1 4.3325053,4.260722 2.1166664,0.52916663 30 0 1 2.9103699,3.63337 2.1166664,0.52916663 30 0 1 1.6566997,2.7150798 1.5875,1.5875 0 0 1 2.0168844,2.089795 a 2.1166664,0.52916663 30 0 1 0.00103,0 A 1.5875,1.5875 0 0 1 2.1181667,1.99161 1.5875,1.5875 0 0 1 2.2189357,1.908928 1.5875,1.5875 0 0 1 3.1749487,1.5875005 Z M 1.5678162,2.0226156 a 2.1166664,0.52916663 30 0 1 0.151412,0.00827 1.8520833,1.8520833 0 0 0 -0.2635498,0.4573365 2.1166664,0.52916663 30 0 1 -0.1136882,-0.3715536 2.1166664,0.52916663 30 0 1 0.225826,-0.094051 z m 0.032039,0.9658325 A 2.3812498,0.79374994 30 0 0 2.7780783,3.8622965 2.3812498,0.79374994 30 0 0 4.1247662,4.4457234 1.5875,1.5875 0 0 1 3.1749533,4.7625 1.5875,1.5875 0 0 1 1.5874533,3.175 1.5875,1.5875 0 0 1 1.5998552,2.9884481 Z M 4.8942282,3.86333 A 2.1166664,0.52916663 30 0 1 5.0079162,4.2333334 2.1166664,0.52916663 30 0 1 4.6301616,4.3206665 1.8520833,1.8520833 0 0 0 4.8942282,3.86333 Z" />
</svg>
