<?xml version="1.0" encoding="UTF-8" standalone="no"?>
<svg
   xmlns:dc="http://purl.org/dc/elements/1.1/"
   xmlns:cc="http://creativecommons.org/ns#"
   xmlns:rdf="http://www.w3.org/1999/02/22-rdf-syntax-ns#"
   xmlns:svg="http://www.w3.org/2000/svg"
   xmlns="http://www.w3.org/2000/svg"
   xmlns:sodipodi="http://sodipodi.sourceforge.net/DTD/sodipodi-0.dtd"
   xmlns:inkscape="http://www.inkscape.org/namespaces/inkscape"
   version="1.1"
   id="레이어_1"
   x="0px"
   y="0px"
   viewBox="0 0 256 256"
   style="enable-background:new 0 0 256 256;"
   xml:space="preserve"
   sodipodi:docname="drive-harddisk-system.svg"
   inkscape:version="1.0.2 (e86c870879, 2021-01-15)"><metadata
   id="metadata15"><rdf:RDF><cc:Work
       rdf:about=""><dc:format>image/svg+xml</dc:format><dc:type
         rdf:resource="http://purl.org/dc/dcmitype/StillImage" /><dc:title></dc:title></cc:Work></rdf:RDF></metadata><defs
   id="defs13">
	
	
</defs><sodipodi:namedview
   pagecolor="#ffffff"
   bordercolor="#666666"
   borderopacity="1"
   objecttolerance="10"
   gridtolerance="10"
   guidetolerance="10"
   inkscape:pageopacity="0"
   inkscape:pageshadow="2"
   inkscape:window-width="1852"
   inkscape:window-height="1048"
   id="namedview11"
   showgrid="false"
   inkscape:zoom="2.317432"
   inkscape:cx="70.661822"
   inkscape:cy="127.81042"
   inkscape:window-x="68"
   inkscape:window-y="32"
   inkscape:window-maximized="1"
   inkscape:current-layer="레이어_1" />
<style
   type="text/css"
   id="style2">
	.st0{fill:#999999;}
	.st1{fill:#FFFFFF;}
</style>
<path
   class="st0"
   d="M251.7,90.4c-3.1-23.4-11.4-44.6-26-60.1l0,0c-15.6-14.6-36.7-22.9-60.1-26C143.2,1.3,128,2,128,2  s-15.2-0.7-37.6,2.3C67,7.4,45.8,15.7,30.3,30.3C15.7,45.8,7.5,67,4.3,90.4c-3,22.3-2.2,37.6-2.2,37.6s-0.7,15.2,2.2,37.6  c3.1,23.4,11.4,44.6,26,60.1l0,0c15.6,14.6,36.7,22.9,60.1,26c22.3,3,37.6,2.2,37.6,2.2s15.2,0.7,37.6-2.2  c23.4-3.1,44.6-11.4,60.1-26l0,0c14.6-15.6,22.9-36.7,26-60.1c3-22.3,2.2-37.6,2.2-37.6S254.7,112.8,251.7,90.4"
   id="path4" />


<path
   id="path16"
   style="fill:#fefefe;fill-opacity:1;stroke-width:4.03802"
   d="m 83.546875,44.509766 c -11.185314,0 -18.516477,8.705118 -20.191406,19.25 L 45.427734,176.62695 c 3.352689,-6.4821 10.099387,-10.90234 17.927735,-10.90234 H 192.57227 c 7.34396,0 13.72928,3.89636 17.26171,9.72851 L 188.53516,63.759766 c -2.00084,-10.492796 -9.00415,-19.25 -20.18946,-19.25 z"
   sodipodi:nodetypes="sccssccss" /><rect
   x="43.166115"
   y="173.72545"
   width="169.59683"
   height="40.380199"
   ry="20.1901"
   id="rect18"
   style="fill:#d8d8d8;fill-opacity:1;stroke-width:4.03802" /><style
   type="text/css"
   id="style873">
	.st0{fill:#999999;}
	.st1{fill:#FFFFFF;}
	.st2{fill:#666666;}
</style><path
   class="st2"
   d="m 253,189.1 c -1.2,-9.3 -4.5,-17.7 -10.3,-23.9 v 0 c -6.2,-5.8 -14.6,-9.1 -23.9,-10.3 -8.9,-1.2 -14.9,-0.9 -14.9,-0.9 0,0 -6,-0.3 -14.9,0.9 -9.3,1.2 -17.7,4.5 -23.9,10.3 -5.8,6.1 -9.1,14.6 -10.3,23.9 -1.2,8.9 -0.9,14.9 -0.9,14.9 0,0 -0.3,6 0.9,14.9 1.2,9.3 4.5,17.7 10.3,23.9 v 0 c 6.2,5.8 14.6,9.1 23.9,10.3 8.9,1.2 14.9,0.9 14.9,0.9 0,0 6,0.3 14.9,-0.9 9.3,-1.2 17.7,-4.5 23.9,-10.3 v 0 c 5.8,-6.2 9.1,-14.6 10.3,-23.9 1.2,-8.9 0.9,-14.9 0.9,-14.9 0,0 0.3,-6 -0.9,-14.9"
   id="path881" /><path
   id="path12"
   class="st0"
   d="m 231.275,229.50654 h -54.71875 c -1.38125,0 -2.65625,-1.16875 -2.65625,-2.65625 v 0 c 0,-1.38126 1.16875,-2.65626 2.65625,-2.65626 H 231.275 c 1.38125,0 2.65625,1.16875 2.65625,2.65626 v 0 c 0,1.4875 -1.16875,2.65625 -2.65625,2.65625 z"
   style="stroke-width:1.0625" /><path
   id="path14"
   class="st1"
   d="m 224.6875,217.71277 h -41.54375 c -3.71875,0 -6.5875,-2.975 -6.5875,-6.58751 v -25.92504 c 0,-3.71876 2.975,-6.58751 6.5875,-6.58751 h 41.54375 c 3.71875,0 6.5875,2.975 6.5875,6.58751 v 25.92504 c 0,3.61251 -2.975,6.58751 -6.5875,6.58751 z"
   style="stroke-width:1.0625" /></svg>
