<?xml version="1.0" encoding="UTF-8" standalone="no"?>
<!-- Created with Inkscape (http://www.inkscape.org/) -->

<svg
   width="16"
   height="16"
   viewBox="0 0 4.2333332 4.2333335"
   version="1.1"
   id="svg11945"
   inkscape:version="1.1.1 (3bf5ae0d25, 2021-09-20, custom)"
   sodipodi:docname="applications-menu-symbolic.svg"
   xmlns:inkscape="http://www.inkscape.org/namespaces/inkscape"
   xmlns:sodipodi="http://sodipodi.sourceforge.net/DTD/sodipodi-0.dtd"
   xmlns="http://www.w3.org/2000/svg"
   xmlns:svg="http://www.w3.org/2000/svg">
  <sodipodi:namedview
     id="namedview11947"
     pagecolor="#ffffff"
     bordercolor="#666666"
     borderopacity="1.0"
     inkscape:pageshadow="2"
     inkscape:pageopacity="0.0"
     inkscape:pagecheckerboard="0"
     inkscape:document-units="px"
     showgrid="false"
     units="in"
     inkscape:zoom="1"
     inkscape:cx="-24"
     inkscape:cy="3.5"
     inkscape:window-width="1920"
     inkscape:window-height="996"
     inkscape:window-x="0"
     inkscape:window-y="0"
     inkscape:window-maximized="1"
     inkscape:current-layer="svg11945"
     showguides="true"
     inkscape:lockguides="false" />
  <defs
     id="defs11942" />
  <path
     id="path12800"
     style="color:#000000;fill:#555555;stroke-width:3.77752;stroke-linecap:round;stroke-linejoin:round;-inkscape-stroke:none;fill-opacity:1"
     d="M 6.5800781 1 C 6.3344474 0.99957628 6.1248814 1.17714 6.0859375 1.4199219 L 5.7324219 3.546875 A 4.9999996 4.9999996 0 0 0 5.2773438 3.8105469 L 3.2617188 3.0527344 C 3.0319915 2.9650697 2.7728389 3.0585492 2.6503906 3.2714844 L 1.2304688 5.7285156 C 1.1072864 5.9410271 1.1568733 6.21207 1.3476562 6.3671875 L 3.0097656 7.734375 A 4.9999996 4.9999996 0 0 0 3 8 A 4.9999996 4.9999996 0 0 0 3.0097656 8.265625 L 1.3417969 9.6347656 C 1.1510135 9.7898827 1.1014272 10.060927 1.2246094 10.273438 L 2.6445312 12.732422 C 2.7669804 12.945357 3.026132 13.036885 3.2558594 12.949219 L 5.2773438 12.189453 A 4.9999996 4.9999996 0 0 0 5.7265625 12.449219 L 6.0800781 14.587891 C 6.1222388 14.827736 6.3309513 15.001024 6.5742188 15 L 9.4199219 15 C 9.6631912 15.001024 9.8719034 14.827736 9.9140625 14.587891 L 10.269531 12.451172 A 4.9999996 4.9999996 0 0 0 10.71875 12.193359 L 12.748047 12.957031 C 12.976841 13.040442 13.23082 12.947528 13.351562 12.736328 L 14.775391 10.271484 C 14.897912 10.061319 14.850695 9.7931522 14.664062 9.6367188 L 12.990234 8.2597656 A 4.9999996 4.9999996 0 0 0 13 8 A 4.9999996 4.9999996 0 0 0 12.994141 7.7421875 A 4.9999996 4.9999996 0 0 0 12.994141 7.7402344 L 14.662109 6.3730469 C 14.848742 6.2166122 14.895966 5.9484509 14.773438 5.7382812 L 13.349609 3.2734375 C 13.228862 3.062249 12.972933 2.9693223 12.744141 3.0527344 L 10.726562 3.8105469 A 4.9999996 4.9999996 0 0 0 10.267578 3.5429688 L 9.9140625 1.4199219 C 9.8751186 1.17714 9.6655522 0.99957628 9.4199219 1 L 6.5800781 1 z M 6.9980469 2.0039062 L 8.9980469 2.0039062 L 9.1875 3.1425781 L 9.3710938 4.2441406 A 4 4 0 0 1 10.570312 4.9335938 L 11.613281 4.5429688 A 4.9999996 4.9999996 0 0 0 11.611328 4.5410156 L 12.697266 4.1347656 L 13.695312 5.8652344 L 13.693359 5.8671875 L 13.693359 5.8691406 L 12.800781 6.6035156 L 11.941406 7.3125 A 4 4 0 0 1 12 8 A 4 4 0 0 1 11.9375 8.6894531 L 12.796875 9.3984375 A 4.9999996 4.9999996 0 0 0 12.798828 9.3945312 L 13.701172 10.136719 L 12.703125 11.867188 L 12.699219 11.865234 L 12.697266 11.869141 L 11.605469 11.460938 L 10.560547 11.070312 A 4 4 0 0 1 9.3730469 11.753906 L 9.1894531 12.853516 L 8.9980469 14.003906 L 6.9980469 14.003906 L 6.8066406 12.853516 L 6.6230469 11.751953 A 4 4 0 0 1 5.4375 11.068359 L 4.3945312 11.458984 A 4.9999996 4.9999996 0 0 0 4.3945312 11.460938 L 3.3027344 11.869141 L 2.3027344 10.138672 L 2.3046875 10.136719 L 2.3046875 10.134766 L 3.2011719 9.3964844 A 4.9999996 4.9999996 0 0 0 3.2011719 9.3984375 L 4.0625 8.6894531 A 4 4 0 0 1 4 8 A 4 4 0 0 1 4.0625 7.3144531 L 3.2011719 6.6054688 L 2.3066406 5.8691406 L 3.3066406 4.1386719 L 3.3085938 4.1386719 L 3.3105469 4.1367188 L 4.390625 4.5429688 A 4.9999996 4.9999996 0 0 0 4.3886719 4.5449219 L 5.4335938 4.9355469 A 4 4 0 0 1 6.625 4.2460938 L 6.8085938 3.1464844 L 6.9980469 2.0039062 z M 8 5 A 2.9999999 2.9999999 0 0 0 5 8 A 2.9999999 2.9999999 0 0 0 8 11 A 2.9999999 2.9999999 0 0 0 11 8 A 2.9999999 2.9999999 0 0 0 8 5 z M 8 6 A 2.0000001 2.0000001 0 0 1 10 8 A 2.0000001 2.0000001 0 0 1 8 10 A 2.0000001 2.0000001 0 0 1 6 8 A 2.0000001 2.0000001 0 0 1 8 6 z "
     transform="scale(0.26458333)" />
</svg>
