<?xml version="1.0" encoding="UTF-8" standalone="no"?>
<!-- Generator: Adobe Illustrator 23.0.0, SVG Export Plug-In . SVG Version: 6.00 Build 0)  -->

<svg
   version="1.1"
   id="레이어_1"
   x="0px"
   y="0px"
   viewBox="0 0 16 16"
   style="enable-background:new 0 0 16 16;"
   xml:space="preserve"
   sodipodi:docname="media-playback-pause-symbolic.svg"
   inkscape:version="1.1.1 (3bf5ae0d25, 2021-09-20, custom)"
   xmlns:inkscape="http://www.inkscape.org/namespaces/inkscape"
   xmlns:sodipodi="http://sodipodi.sourceforge.net/DTD/sodipodi-0.dtd"
   xmlns="http://www.w3.org/2000/svg"
   xmlns:svg="http://www.w3.org/2000/svg"
   xmlns:ns="&amp;ns_sfw;"><defs
   id="defs21">
	

	
	

		
	</defs><sodipodi:namedview
   id="namedview19"
   pagecolor="#ffffff"
   bordercolor="#666666"
   borderopacity="1.0"
   inkscape:pageshadow="2"
   inkscape:pageopacity="0.0"
   inkscape:pagecheckerboard="0"
   showgrid="false"
   inkscape:zoom="22.15625"
   inkscape:cx="1.9407616"
   inkscape:cy="5.7094499"
   inkscape:window-width="1920"
   inkscape:window-height="996"
   inkscape:window-x="0"
   inkscape:window-y="0"
   inkscape:window-maximized="1"
   inkscape:current-layer="레이어_1" />
<style
   type="text/css"
   id="style2">
	.st0{fill:#363636;}
</style>
<metadata
   id="metadata4">
	<ns:sfw>
		<ns:slices />
		<ns:sliceSourceBounds
   bottomLeftOrigin="true"
   height="15.1"
   width="14.3"
   x="0.8"
   y="0.3" />
	</ns:sfw>
</metadata>


<path
   id="rect1070"
   style="fill:#555555;stroke-width:5;stroke-linecap:round;stroke-linejoin:round;fill-opacity:1"
   d="M 4.5 2 C 3.669 2 3 2.669 3 3.5 L 3 12.5 C 3 13.331 3.669 14 4.5 14 C 5.331 14 6 13.331 6 12.5 L 6 3.5 C 6 2.669 5.331 2 4.5 2 z M 11.5 2 C 10.669 2 10 2.669 10 3.5 L 10 12.5 C 10 13.331 10.669 14 11.5 14 C 12.331 14 13 13.331 13 12.5 L 13 3.5 C 13 2.669 12.331 2 11.5 2 z " /></svg>
