<?xml version="1.0" encoding="UTF-8" standalone="no"?>
<!-- Created with Inkscape (http://www.inkscape.org/) -->

<svg
   width="22"
   height="22"
   viewBox="0 0 5.8208331 5.8208336"
   version="1.1"
   id="svg5"
   inkscape:version="1.1.1 (3bf5ae0d25, 2021-09-20, custom)"
   sodipodi:docname="emblem-unreadable.svg"
   xmlns:inkscape="http://www.inkscape.org/namespaces/inkscape"
   xmlns:sodipodi="http://sodipodi.sourceforge.net/DTD/sodipodi-0.dtd"
   xmlns="http://www.w3.org/2000/svg"
   xmlns:svg="http://www.w3.org/2000/svg">
  <sodipodi:namedview
     id="namedview7"
     pagecolor="#ffffff"
     bordercolor="#666666"
     borderopacity="1.0"
     inkscape:pageshadow="2"
     inkscape:pageopacity="0.0"
     inkscape:pagecheckerboard="true"
     inkscape:document-units="px"
     showgrid="false"
     units="px"
     width="16px"
     inkscape:zoom="24.78125"
     inkscape:cx="4.5598991"
     inkscape:cy="13.054224"
     inkscape:window-width="1920"
     inkscape:window-height="996"
     inkscape:window-x="0"
     inkscape:window-y="0"
     inkscape:window-maximized="1"
     inkscape:current-layer="svg5" />
  <defs
     id="defs2" />
  <path
     d="m 0.52916667,2.9104166 c 0,-1.7144999 0.66675003,-2.38124993 2.38124993,-2.38124993 1.7145,0 2.38125,0.66675003 2.38125,2.38124993 0,1.7145 -0.66675,2.38125 -2.38125,2.38125 -1.7144999,0 -2.38124993,-0.66675 -2.38124993,-2.38125"
     id="path2"
     style="opacity:0.9;fill:#c02121;fill-opacity:1;stroke:none;stroke-width:0.0238125" />
  <path
     id="rect846"
     style="fill:#ffffff;stroke-width:0.257285"
     d="m 1.7125571,1.5875708 c -0.03137,0.0017 -0.062206,0.014667 -0.086294,0.038755 -0.051821,0.051821 -0.051821,0.1352366 0,0.1870575 L 2.723462,2.910579 1.6262629,4.0075128 c -0.051821,0.051821 -0.051821,0.1352371 0,0.1870577 0.051821,0.05182 0.135237,0.05182 0.1870576,0 l 1.0971984,-1.096934 1.0969939,1.096934 c 0.051821,0.05182 0.1352366,0.05182 0.1870577,0 0.051821,-0.051821 0.051821,-0.1352366 0,-0.1870577 L 3.0975764,2.910579 4.1945707,1.8133833 c 0.051821,-0.051821 0.051821,-0.135237 0,-0.1870575 -0.02753,-0.027529 -0.06384,-0.040476 -0.09973,-0.038755 -0.031667,0.00152 -0.063037,0.014464 -0.087328,0.038755 L 2.9105189,2.7235215 1.8133202,1.6263258 c -0.024291,-0.024291 -0.055661,-0.037237 -0.087328,-0.038755 -0.00449,-2.151e-4 -0.00895,-2.431e-4 -0.013435,0 z"
     sodipodi:nodetypes="ccsccscccscccssccssc" />
</svg>
