<?xml version="1.0" encoding="UTF-8" standalone="no"?>
<!-- Created with Inkscape (http://www.inkscape.org/) -->

<svg
   width="22"
   height="22"
   viewBox="0 0 5.8208331 5.8208336"
   version="1.1"
   id="svg11945"
   inkscape:version="1.1.1 (3bf5ae0d25, 2021-09-20, custom)"
   sodipodi:docname="folder-images.svg"
   xmlns:inkscape="http://www.inkscape.org/namespaces/inkscape"
   xmlns:sodipodi="http://sodipodi.sourceforge.net/DTD/sodipodi-0.dtd"
   xmlns="http://www.w3.org/2000/svg"
   xmlns:svg="http://www.w3.org/2000/svg">
  <sodipodi:namedview
     id="namedview11947"
     pagecolor="#ffffff"
     bordercolor="#666666"
     borderopacity="1.0"
     inkscape:pageshadow="2"
     inkscape:pageopacity="0.0"
     inkscape:pagecheckerboard="0"
     inkscape:document-units="px"
     showgrid="false"
     units="in"
     inkscape:zoom="32"
     inkscape:cx="7.15625"
     inkscape:cy="10.546875"
     inkscape:window-width="1920"
     inkscape:window-height="996"
     inkscape:window-x="0"
     inkscape:window-y="0"
     inkscape:window-maximized="1"
     inkscape:current-layer="svg11945"
     showguides="false" />
  <defs
     id="defs11942" />
  <path
     id="rect20156"
     style="opacity:1;fill:#555555;fill-opacity:1;stroke:none;stroke-width:0.302382;stroke-linecap:round;stroke-miterlimit:4;stroke-dasharray:none"
     d="M 1.3229167,0.79375 C 1.0297583,0.79375 0.79375,1.0297583 0.79375,1.3229167 v 3.175 c 0,0.2931583 0.2360083,0.5291666 0.5291667,0.5291666 h 3.1749999 c 0.2931583,0 0.5291667,-0.2360083 0.5291667,-0.5291666 v -3.175 C 5.0270833,1.0297583 4.7910749,0.79375 4.4979166,0.79375 Z m 0,0.2645833 h 3.1749999 c 0.1465792,0 0.290413,0.1202979 0.2645833,0.2645834 V 3.0655659 L 4.1553018,2.4577643 C 4.103701,2.4064841 4.0362113,2.3807664 3.96875,2.3807664 c -0.067461,0 -0.134951,0.025718 -0.1865519,0.076998 L 2.6453166,3.488709 2.0396688,2.9874477 c -0.1034258,-0.1038609 -0.2712285,-0.1038609 -0.3746542,0 L 1.0583333,3.5947326 V 1.3229167 c 0,-0.1465792 0.1180042,-0.2645834 0.2645834,-0.2645834 z m 0.5291666,0.2645834 c -0.2922506,0 -0.5291666,0.236916 -0.5291666,0.5291667 0,0.2922506 0.236916,0.5291666 0.5291666,0.5291666 0.2922507,0 0.5291667,-0.236916 0.5291667,-0.5291666 0,-0.2922507 -0.236916,-0.5291667 -0.5291667,-0.5291667 z m 0,0.2645833 c 0.1461254,0 0.2645833,0.118458 0.2645834,0.2645834 -1e-7,0.1461253 -0.118458,0.2645833 -0.2645834,0.2645833 C 1.705958,2.1166667 1.5875,1.9982087 1.5875,1.8520834 1.5875,1.705958 1.705958,1.5875 1.8520833,1.5875 Z m 2.1213175,1.0578497 c 0.03323,8.123e-4 0.065663,0.014328 0.089917,0.038241 l 0.699182,0.699269 v 1.115057 C 4.7624998,4.6444958 4.6444957,4.7625 4.4979165,4.7625 H 1.3229167 C 1.1763375,4.7625 1.0583333,4.6444958 1.0583333,4.4979167 V 3.9120257 L 1.758549,3.2127568 c 0.04841,-0.047995 0.1253627,-0.05135 0.1777669,-0.00775 l 0.6304525,0.5245159 c 0.045932,0.041326 0.1186835,0.03375 0.1529622,-0.00517 L 3.8814168,2.6794561 c 0.01673,-0.015001 0.037004,-0.025494 0.058911,-0.030489 0.011054,-0.00258 0.021997,-0.00389 0.033073,-0.00362 z"
     sodipodi:nodetypes="ssssssssssssccscccccsssssssssssssccsssscccccccs" />
</svg>
