<?xml version="1.0" encoding="UTF-8" standalone="no"?>
<!-- Created with Inkscape (http://www.inkscape.org/) -->

<svg
   width="22"
   height="22"
   viewBox="0 0 5.8208331 5.8208336"
   version="1.1"
   id="svg11945"
   inkscape:version="1.1.1 (3bf5ae0d25, 2021-09-20, custom)"
   sodipodi:docname="folder-videos.svg"
   xmlns:inkscape="http://www.inkscape.org/namespaces/inkscape"
   xmlns:sodipodi="http://sodipodi.sourceforge.net/DTD/sodipodi-0.dtd"
   xmlns="http://www.w3.org/2000/svg"
   xmlns:svg="http://www.w3.org/2000/svg">
  <sodipodi:namedview
     id="namedview11947"
     pagecolor="#ffffff"
     bordercolor="#666666"
     borderopacity="1.0"
     inkscape:pageshadow="2"
     inkscape:pageopacity="0.0"
     inkscape:pagecheckerboard="0"
     inkscape:document-units="px"
     showgrid="false"
     units="in"
     inkscape:zoom="22.627417"
     inkscape:cx="4.331029"
     inkscape:cy="8.905126"
     inkscape:window-width="1920"
     inkscape:window-height="996"
     inkscape:window-x="0"
     inkscape:window-y="0"
     inkscape:window-maximized="1"
     inkscape:current-layer="svg11945"
     showguides="true" />
  <defs
     id="defs11942" />
  <path
     id="rect20156"
     style="opacity:1;fill:#555555;fill-opacity:1;stroke:none;stroke-width:0.302382;stroke-linecap:round;stroke-miterlimit:4;stroke-dasharray:none"
     d="M 1.3229167,0.79375 C 1.0297583,0.79375 0.79375,1.0297583 0.79375,1.3229167 v 3.1749999 c 0,0.2931583 0.2360083,0.5291667 0.5291667,0.5291667 h 3.175 c 0.2931583,0 0.5291666,-0.2360084 0.5291666,-0.5291667 V 1.3229167 C 5.0270833,1.0297583 4.791075,0.79375 4.4979167,0.79375 Z m 0,0.2645833 h 3.175 c 0.1465791,0 0.2645833,0.1180042 0.2645833,0.2645834 v 3.1749999 c 0,0.1465792 -0.1180042,0.2645833 -0.2645833,0.2645833 h -3.175 c -0.1465792,0 -0.2645834,-0.1180041 -0.2645834,-0.2645833 V 1.3229167 c 0,-0.1465792 0.1180042,-0.2645834 0.2645834,-0.2645834 z m 0.7968506,0.5286499 c -0.046672,-5.891e-4 -0.092669,0.011178 -0.1333252,0.034107 -0.08327,0.046842 -0.1348224,0.1349356 -0.1348755,0.2304769 v 2.1166666 c 1.522e-4,0.205458 0.2241936,0.3323664 0.4004923,0.2268596 L 4.1051758,3.1372886 c 0.1700575,-0.1029819 0.1700575,-0.3497036 0,-0.4526855 L 2.2520589,1.624707 c -0.04,-0.024018 -0.08564,-0.037032 -0.1322916,-0.037724 z M 2.1166667,1.8520833 3.96875,2.9104291 2.1166667,3.96875 Z"
     sodipodi:nodetypes="ssssssssssssssssssccccccccccccc" />
</svg>
