<?xml version="1.0" encoding="UTF-8" standalone="no"?>
<svg
   viewbox="0 0 200 200"
   version="1.1"
   id="svg4"
   sodipodi:docname="clocks.svg"
   width="64"
   height="64"
   inkscape:version="1.1.1 (3bf5ae0d25, 2021-09-20, custom)"
   xmlns:inkscape="http://www.inkscape.org/namespaces/inkscape"
   xmlns:sodipodi="http://sodipodi.sourceforge.net/DTD/sodipodi-0.dtd"
   xmlns="http://www.w3.org/2000/svg"
   xmlns:svg="http://www.w3.org/2000/svg">
  <defs
     id="defs8" />
  <sodipodi:namedview
     id="namedview6"
     pagecolor="#ffffff"
     bordercolor="#666666"
     borderopacity="1.0"
     inkscape:pageshadow="2"
     inkscape:pageopacity="0.0"
     inkscape:pagecheckerboard="0"
     showgrid="false"
     inkscape:zoom="4.3752232"
     inkscape:cx="-27.998572"
     inkscape:cy="49.59747"
     inkscape:window-width="1920"
     inkscape:window-height="1006"
     inkscape:window-x="0"
     inkscape:window-y="0"
     inkscape:window-maximized="1"
     inkscape:current-layer="svg4"
     showguides="true" />
  <path
     d="M 2,32 C 2,10.4 10.4,2 32,2 53.6,2 62,10.4 62,32 62,53.6 53.6,62 32,62 10.4,62 2,53.6 2,32"
     id="path2"
     style="stroke-width:0.3;fill:#6166da;fill-opacity:1" />
  <circle
     style="fill:#ffffff;fill-opacity:1;stroke-width:0.95"
     id="path12582"
     cx="32"
     cy="32"
     r="19" />
  <path
     id="rect1186"
     style="fill:#4d4ead;fill-opacity:1;stroke-width:2;stroke-linecap:round;stroke-linejoin:round"
     d="m 32,17 c -1.108,0 -2,0.892 -2,2 v 14 l 9.124766,7.464422 c 0.943617,0.580733 2.176468,0.227134 2.730469,-0.732422 0.554,-0.959556 0.213146,-2.151689 -0.730469,-2.732422 L 34,31 V 19 c 0,-1.108 -0.892,-2 -2,-2 z"
     sodipodi:nodetypes="scccsccss" />
</svg>
