<?xml version="1.0" encoding="UTF-8" standalone="no"?>
<svg
   width="64"
   height="64"
   version="1.1"
   id="svg24"
   sodipodi:docname="google-earth-pro.svg"
   inkscape:version="1.1.1 (3bf5ae0d25, 2021-09-20, custom)"
   xmlns:inkscape="http://www.inkscape.org/namespaces/inkscape"
   xmlns:sodipodi="http://sodipodi.sourceforge.net/DTD/sodipodi-0.dtd"
   xmlns="http://www.w3.org/2000/svg"
   xmlns:svg="http://www.w3.org/2000/svg">
  <defs
     id="defs28" />
  <sodipodi:namedview
     id="namedview26"
     pagecolor="#ffffff"
     bordercolor="#666666"
     borderopacity="1.0"
     inkscape:pageshadow="2"
     inkscape:pageopacity="0.0"
     inkscape:pagecheckerboard="0"
     showgrid="false"
     inkscape:zoom="11.9375"
     inkscape:cx="32.08377"
     inkscape:cy="31.958115"
     inkscape:window-width="1920"
     inkscape:window-height="1019"
     inkscape:window-x="0"
     inkscape:window-y="0"
     inkscape:window-maximized="1"
     inkscape:current-layer="svg24" />
  <path
     style="fill:#255fdb"
     d="M 23.310268,37.8326 C 13.764913,25.204093 3.9650136,34.800357 6.523169,43.626631 c 4.394045,9.656717 14.200309,16.373465 25.467007,16.373465 9.990808,0 18.629356,-5.208581 23.535669,-12.790777 -7.381743,6.907657 -20.78024,5.752668 -32.215577,-9.376719 z"
     id="path4" />
  <path
     style="fill:#4285f4"
     d="M 31.843816,29.13678 C 18.71577,9.2251686 4.0000135,19.836423 4.0000135,32.006751 c 0,4.174502 0.9099903,8.113551 2.5422462,11.670787 -1.7436181,-8.244005 7.7285573,-14.601211 16.5484653,-2.768154 12.806685,17.18164 25.374737,14.158945 32.406482,6.3413 1.899526,-2.831789 3.751326,-7.174925 4.269957,-11.492607 l -0.0096,0.0541 c -3.009893,9.360804 -16.335209,10.88488 -27.913726,-6.675393 z"
     id="path6" />
  <path
     style="fill:#91bfff"
     d="M 40.841904,20.227783 C 31.092914,4.1438576 18.731679,5.5915699 10.373129,14.211025 6.3990794,19.044158 4.0000135,25.239094 4.0000135,32.000387 c 0.8749908,-11.785332 15.1134795,-19.965702 27.9997105,0 11.470334,17.770271 25.724732,13.140772 27.754712,3.856324 l 0.0128,-0.08908 c 0.203632,-1.275897 0.225905,-2.494521 0.225905,-3.805415 0,-0.423178 0.016,-0.843173 -0.0032,-1.259987 -4.969946,3.525416 -11.492605,2.154068 -19.147981,-10.474437 z"
     id="path8" />
  <path
     style="fill:#c4e1ff"
     d="m 40.908721,23.091388 c 8.928091,14.353033 16.624828,10.681254 19.081166,7.61083 -0.09545,-2.189066 -0.451812,-4.308137 -1.024535,-6.334935 -4.161774,0.0859 -5.132219,-0.60772 -9.211269,-6.844019 C 43.479604,7.9301819 35.595142,1.4616127 21.83074,5.9065666 17.32533,7.6660939 13.386279,10.555155 10.363584,14.223754 19.829396,5.5120251 31.442912,7.8760916 40.908721,23.091388 Z"
     id="path10" />
  <path
     style="fill:#f5f5f5"
     d="m 49.127273,18.754614 c 4.07905,6.236301 6.564024,6.567205 9.838079,5.612669 C 55.634023,12.59786 44.835045,4.0006774 31.990176,4.0006774 c -3.585871,0 -7.019017,0.6840838 -10.168984,1.909071 12.303965,-3.881778 21.0316,3.2517844 27.306081,12.8448656 z"
     id="path12" />
</svg>
