<?xml version="1.0" encoding="UTF-8" standalone="no"?>
<!-- Created with Inkscape (http://www.inkscape.org/) -->

<svg
   width="64"
   height="64"
   viewBox="0 0 16.933333 16.933333"
   version="1.1"
   id="svg5"
   inkscape:version="1.1.1 (3bf5ae0d25, 2021-09-20, custom)"
   sodipodi:docname="google-chrome-beta.svg"
   xmlns:inkscape="http://www.inkscape.org/namespaces/inkscape"
   xmlns:sodipodi="http://sodipodi.sourceforge.net/DTD/sodipodi-0.dtd"
   xmlns:xlink="http://www.w3.org/1999/xlink"
   xmlns="http://www.w3.org/2000/svg"
   xmlns:svg="http://www.w3.org/2000/svg">
  <sodipodi:namedview
     id="namedview7"
     pagecolor="#ffffff"
     bordercolor="#666666"
     borderopacity="1.0"
     inkscape:pageshadow="2"
     inkscape:pageopacity="0.0"
     inkscape:pagecheckerboard="0"
     inkscape:document-units="px"
     showgrid="true"
     units="px"
     height="48px"
     inkscape:zoom="2.828427"
     inkscape:cx="-20.329321"
     inkscape:cy="59.220196"
     inkscape:window-width="1567"
     inkscape:window-height="932"
     inkscape:window-x="56"
     inkscape:window-y="50"
     inkscape:window-maximized="0"
     inkscape:current-layer="svg5"
     inkscape:lockguides="true" />
  <defs
     id="defs2">
    <linearGradient
       inkscape:collect="always"
       xlink:href="#linearGradient8986"
       id="linearGradient8988"
       x1="343.89917"
       y1="131.7724"
       x2="288.6394"
       y2="105.74506"
       gradientUnits="userSpaceOnUse"
       gradientTransform="translate(27.10082,13.354545)" />
    <linearGradient
       inkscape:collect="always"
       id="linearGradient8986">
      <stop
         style="stop-color:#055524;stop-opacity:0.40000001"
         offset="0"
         id="stop8982" />
      <stop
         style="stop-color:#055524;stop-opacity:0.00243676"
         offset="0.33000001"
         id="stop9592" />
      <stop
         style="stop-color:#055524;stop-opacity:0;"
         offset="1"
         id="stop8984" />
    </linearGradient>
    <linearGradient
       inkscape:collect="always"
       xlink:href="#linearGradient5320"
       id="linearGradient5322"
       x1="339.97534"
       y1="29.645454"
       x2="359.89917"
       y2="91.645454"
       gradientUnits="userSpaceOnUse"
       gradientTransform="translate(27.100816,13.354545)" />
    <linearGradient
       inkscape:collect="always"
       id="linearGradient5320">
      <stop
         style="stop-color:#ea6100;stop-opacity:0.3019608"
         offset="0"
         id="stop5316" />
      <stop
         style="stop-color:#ea6100;stop-opacity:0.00289255"
         offset="0.66000003"
         id="stop5388" />
      <stop
         style="stop-color:#ea6100;stop-opacity:0;"
         offset="1"
         id="stop5318" />
    </linearGradient>
    <linearGradient
       inkscape:collect="always"
       xlink:href="#linearGradient7553"
       id="linearGradient7555"
       x1="257.79175"
       y1="63.645454"
       x2="308.25464"
       y2="33.645454"
       gradientUnits="userSpaceOnUse"
       gradientTransform="translate(27.190663,13.454155)" />
    <linearGradient
       inkscape:collect="always"
       id="linearGradient7553">
      <stop
         style="stop-color:#a52714;stop-opacity:0.99215686"
         offset="0"
         id="stop7549" />
      <stop
         style="stop-color:#a52714;stop-opacity:0"
         offset="0.66000003"
         id="stop7777" />
      <stop
         style="stop-color:#a52714;stop-opacity:0;"
         offset="1"
         id="stop7551" />
    </linearGradient>
    <radialGradient
       inkscape:collect="always"
       xlink:href="#linearGradient29324"
       id="radialGradient29326"
       cx="359.70151"
       cy="117.08517"
       fx="359.70151"
       fy="117.08517"
       r="19.409994"
       gradientTransform="matrix(3.4729536,0,0,3.5600214,-905.19043,-322.30696)"
       gradientUnits="userSpaceOnUse" />
    <linearGradient
       inkscape:collect="always"
       id="linearGradient29324">
      <stop
         style="stop-color:#263238;stop-opacity:0.2"
         offset="0"
         id="stop29320" />
      <stop
         style="stop-color:#263238;stop-opacity:0;"
         offset="1"
         id="stop29322" />
    </linearGradient>
    <radialGradient
       inkscape:collect="always"
       xlink:href="#linearGradient27513"
       id="radialGradient27515"
       cx="349"
       cy="20.275003"
       fx="349"
       fy="20.275003"
       r="39.200001"
       gradientTransform="matrix(2.020408,0,0,1.8998723,-356.12236,10.480081)"
       gradientUnits="userSpaceOnUse" />
    <linearGradient
       inkscape:collect="always"
       id="linearGradient27513">
      <stop
         style="stop-color:#3e2723;stop-opacity:0.2"
         offset="0"
         id="stop27509" />
      <stop
         style="stop-color:#3e2723;stop-opacity:0"
         offset="1"
         id="stop27511" />
    </linearGradient>
    <radialGradient
       inkscape:collect="always"
       xlink:href="#linearGradient27513"
       id="radialGradient35106"
       cx="274.87961"
       cy="46.549999"
       fx="274.87961"
       fy="46.549999"
       r="28.625"
       gradientTransform="matrix(2.3973753,0,0,2.4393014,-384.09686,-71.986974)"
       gradientUnits="userSpaceOnUse" />
  </defs>
  <path
     d="m 0.52916666,8.4666665 c 0,-5.7149999 2.22249994,-7.93749984 7.93749994,-7.93749984 5.7149994,0 7.9374994,2.22249994 7.9374994,7.93749984 0,5.7149995 -2.2225,7.9374995 -7.9374994,7.9374995 -5.715,0 -7.93749994,-2.2225 -7.93749994,-7.9374995"
     id="path2"
     style="fill:#ffffff;fill-opacity:1;stroke-width:0.079375" />
  <g
     id="g38077"
     transform="matrix(0.06614583,0,0,0.06614583,-14.618228,2.5796875)">
    <path
       id="path2795"
       style="fill:#db4437;fill-opacity:1;stroke-width:0.951353"
       d="M 349,1 A 88,88 0 0 0 274.89258,41.562503 L 314.34961,109 C 315.29922,108.6 349,49.000003 349,49.000003 h 78.35547 A 88,88 0 0 0 349,1 Z" />
    <path
       id="path2999"
       style="fill:#0f9d58;fill-opacity:1;stroke-width:1.04222"
       d="M 274.9082,41.535153 A 88,88 0 0 0 261,89.000003 88,88 0 0 0 345.07617,176.71875 l 38.66406,-67.61914 h -69.30078 z" />
    <path
       id="path2999-9"
       style="fill:url(#linearGradient8988);fill-opacity:1;stroke-width:1.04222"
       d="M 274.9082,41.535153 A 88,88 0 0 0 261,89.000003 88,88 0 0 0 345.07617,176.71875 l 38.66406,-67.61914 h -69.30078 z" />
    <path
       id="path4009"
       style="fill:#ffcd40;fill-opacity:1;stroke-width:0.940164"
       d="m 349,49.000003 34.74023,60.099607 -38.66406,67.61914 c 1.30568,0.12298 2.61395,0.21675 3.92383,0.28125 48.60106,0 88,-39.39894 88,-87.999997 -0.009,-13.90814 -3.31392,-27.61616 -9.64453,-40 z"
       sodipodi:nodetypes="ccccccc" />
    <path
       id="path4009-7"
       style="fill:url(#linearGradient5322);fill-opacity:1;stroke-width:0.940164"
       d="m 349,49.000003 34.74023,60.099617 -38.66406,67.61913 c 1.30568,0.12298 2.61395,0.21675 3.92383,0.28125 48.60106,0 88,-39.39894 88,-87.999995 -0.009,-13.908142 -3.31392,-27.616162 -9.64453,-40.000002 z"
       sodipodi:nodetypes="ccccccc" />
    <path
       id="rect37027"
       style="fill:#3e2723;fill-opacity:0.14902"
       d="m 274.55273,39.644531 a 88,88 0 0 0 -0.5664,0.75586 l -0.0781,0.134765 39.53907,67.800784 0.86132,-0.5 z"
       transform="translate(1,1)" />
    <path
       id="path2795-2"
       style="fill:url(#linearGradient7555);fill-opacity:1;stroke-width:0.951353"
       d="m 349.08984,1.09961 a 88,88 0 0 0 -74.10742,40.562503 l 39.45703,67.437497 c 0.94961,-0.4 34.65039,-59.999997 34.65039,-59.999997 h 78.35547 A 88,88 0 0 0 349.08984,1.09961 Z" />
    <path
       id="path10302"
       style="fill:#3e2723;fill-opacity:0.2;stroke-width:0.860913"
       d="m 348,47 c -22.09139,0 -40,17.90861 -40,40 0.012,0.166747 0.025,0.333417 0.0391,0.5 C 308.31254,65.619325 326.11762,48.019659 348,48 h 78.35547 a 88,88 0 0 0 -0.58985,-1 z"
       transform="translate(1,1)" />
    <path
       id="rect11816"
       style="fill:url(#radialGradient29326);fill-opacity:1"
       d="m 383.89616,108.81875 -17.86,-10.3 -20.95999,78.2 z"
       sodipodi:nodetypes="cccc" />
    <path
       id="rect12627"
       style="fill:#ffffff;fill-opacity:0.2"
       d="M 376.80664,60.263672 C 383.98405,67.713816 387.99593,77.654963 388,88 l -5.25977,20.09961 -38.66406,67.61914 c 0.26779,0.0252 0.53669,0.0358 0.80469,0.0586 l 37.48047,-64.76562 c 0.48828,-0.78008 0.94949,-1.57678 1.38281,-2.38867 l 0.98047,-1.69532 -0.0762,0.0371 C 387.48169,101.39845 388.97197,95.245896 389,89 388.99522,78.165136 384.59528,67.795701 376.80664,60.263672 Z"
       transform="translate(1,1)" />
    <path
       id="path13191"
       style="fill:#3e2723;fill-opacity:0.1;stroke-width:0.986001"
       d="M 349,48 A 40,40 0 0 0 348.74219,48.01758 40,40 0 0 1 388,88 40,40 0 0 1 348.5,127.96484 40,40 0 0 0 349,128 40,40 0 0 0 389,88 40,40 0 0 0 349,48 Z"
       transform="translate(1,1)" />
    <path
       id="path13191-8"
       style="fill:#3e2723;fill-opacity:0.1;stroke-width:0.986001"
       d="m 350,48.999956 a 40,40 0 0 0 -0.25781,0.01758 A 40,40 0 0 1 389,88.999956 40,40 0 0 1 349.5,128.9648 40,40 0 0 0 350,129 a 40,40 0 0 0 40,-40.000004 40,40 0 0 0 -40,-40 z" />
    <path
       id="rect14116"
       style="fill:url(#radialGradient27515);fill-opacity:1"
       d="m 349,49.000004 h 78.4 L 349,69.950005 Z"
       sodipodi:nodetypes="cccc" />
    <path
       id="path111-3"
       d="m 273.9082,40.535156 a 88,88 0 0 0 -0.17773,0.316406 l 39.82031,68.248048 c 6.92,11.94 19.79961,20 34.59961,20 12.63154,0 23.8492,-5.87576 31.17188,-15.02344 l 3.30859,-5.78515 c -6.94681,11.83259 -19.76124,19.80859 -34.48047,19.80859 -14.8,0 -27.69961,-8.06 -34.59961,-20 h -0.041 -0.0703 z"
       style="fill:#ffffff;fill-opacity:0.1"
       transform="translate(1,1)" />
    <path
       id="path33289"
       style="fill:#ffffff;fill-opacity:0.2;stroke-width:0.905648"
       d="m 348,0 a 88,88 0 0 0 -88,88 88,88 0 0 0 0.0352,0.5 A 88,88 0 0 1 348,1 88,88 0 0 1 435.98242,88.253906 88,88 0 0 0 436,88 88,88 0 0 0 348,0 Z"
       transform="translate(1,1)" />
    <path
       id="rect34189"
       style="fill:url(#radialGradient35106);fill-opacity:1"
       d="m 274.89258,41.562503 57.25,57.239999 -17.78,10.409998 z"
       sodipodi:nodetypes="cccc" />
    <path
       id="path35564"
       style="fill:#3e2723;fill-opacity:0.14902;stroke-width:0.98282"
       d="M 435.98242,87.253906 A 88,88 0 0 1 348,175 88,88 0 0 1 260.03516,87.5 88,88 0 0 0 260,88 a 88,88 0 0 0 88,88 88,88 0 0 0 88,-88 88,88 0 0 0 -0.0176,-0.746094 z"
       transform="translate(1,1)" />
    <path
       id="rect35898"
       style="fill:#263238;fill-opacity:0.14902"
       d="m 382.63086,108.29102 -1.66016,0.88086 -38.01172,66.46679 a 88,88 0 0 0 1.10547,0.0801 z"
       transform="translate(1,1)" />
    <circle
       style="fill:#f1f1f1;fill-opacity:1;stroke-width:1.07656"
       id="path10697"
       cx="349"
       cy="89"
       r="40" />
    <circle
       style="fill:#4285f4;fill-opacity:1;stroke-width:1.34765"
       id="path11362"
       cx="349"
       cy="89"
       r="32" />
  </g>
  <path
     id="path898"
     style="fill:#414242;fill-opacity:1;stroke-width:0.831546;stroke-linecap:round;stroke-linejoin:round"
     d="m 2.890263,10.129762 a 5.8208336,5.8208336 0 0 0 5.576404,4.157739 5.8208336,5.8208336 0 0 0 5.576405,-4.157739 z" />
  <path
     id="path59350"
     style="font-size:33.394px;line-height:1.25;font-family:'Google Sans';-inkscape-font-specification:'Google Sans';fill:#ffffff;stroke-width:0.0545338"
     d="m 6.3877979,10.96131 v 1.561843 h 0.5912899 c 0.082891,0 0.1601452,-0.01895 0.2314017,-0.05676 0.072711,-0.03781 0.1299753,-0.08966 0.1721476,-0.156559 0.043626,-0.06835 0.065492,-0.14519 0.065492,-0.229535 0,-0.0858 -0.024778,-0.16056 -0.074223,-0.224546 -0.049443,-0.064 -0.1135797,-0.109178 -0.1921076,-0.135353 v -0.0087 c 0.06544,-0.03054 0.1168741,-0.07427 0.1546835,-0.130987 0.039264,-0.05672 0.059254,-0.122729 0.059254,-0.19835 0,-0.07998 -0.020407,-0.151826 -0.061125,-0.215813 C 7.293893,11.10252 7.238503,11.052556 7.1687007,11.0162 7.1003527,10.97985 7.0270543,10.96131 6.9485262,10.96131 Z m 2.5978094,0.135352 v 0.314365 h -0.193978 v 0.167785 h 0.193978 v 0.65243 c 0,0.05235 0.00728,0.0965 0.021831,0.132858 0.014543,0.03636 0.036406,0.06842 0.065491,0.09606 0.026177,0.02472 0.058243,0.04409 0.096053,0.05863 0.039264,0.01454 0.081536,0.02183 0.1266161,0.02183 0.034902,0 0.063013,-0.0019 0.084826,-0.0062 0.023267,-0.0043 0.046172,-0.01165 0.067986,-0.02183 v -0.180884 c -0.039264,0.02472 -0.080077,0.0368 -0.1222495,0.0368 -0.052351,0 -0.092125,-0.01604 -0.1197548,-0.04803 -0.023267,-0.02908 -0.034928,-0.07427 -0.034928,-0.135351 V 11.578812 H 9.4415497 V 11.411027 H 9.1714773 v -0.314364 z m -2.4144346,0.04179 h 0.3860849 c 0.050898,0 0.095043,0.01207 0.1328533,0.0368 0.039264,0.02472 0.069456,0.05679 0.089816,0.09606 0.021814,0.03781 0.032433,0.07613 0.032433,0.115391 0,0.04072 -0.010621,0.08112 -0.032433,0.120381 -0.021815,0.03782 -0.053465,0.06884 -0.094182,0.09356 -0.039264,0.02472 -0.084867,0.0368 -0.1372195,0.0368 H 6.5711727 Z m 1.5811397,0.237645 c -0.1076118,0 -0.2017345,0.02665 -0.2831706,0.08046 -0.081436,0.05381 -0.1445311,0.12565 -0.1896121,0.215814 -0.043626,0.09016 -0.065492,0.189285 -0.065492,0.296899 0,0.111978 0.023322,0.212974 0.069857,0.303138 0.047988,0.08871 0.113999,0.158678 0.1983442,0.209575 0.084344,0.0509 0.1795076,0.0761 0.2856655,0.0761 0.1163372,0 0.2154563,-0.02624 0.2968923,-0.07859 0.082891,-0.05235 0.1478603,-0.123155 0.1958495,-0.213319 L 8.503468,12.189458 c -0.077074,0.13379 -0.186813,0.200844 -0.3293262,0.200844 -0.061077,0 -0.1197996,-0.01457 -0.1765137,-0.04366 -0.055261,-0.02908 -0.1008639,-0.07281 -0.1372193,-0.130986 -0.036356,-0.05817 -0.056762,-0.129599 -0.061126,-0.213945 h 0.8788269 c 0.00436,-0.016 0.00686,-0.03495 0.00686,-0.05676 0,-0.110523 -0.021865,-0.208605 -0.065492,-0.294406 -0.042171,-0.0858 -0.103391,-0.152231 -0.1833733,-0.200223 -0.079982,-0.04945 -0.1747279,-0.07423 -0.283794,-0.07423 z m 1.9067226,0 c -0.09307,0 -0.1780292,0.01895 -0.2551023,0.05676 -0.075617,0.03782 -0.1353825,0.08966 -0.1790082,0.156559 l 0.1397139,0.104789 c 0.030541,-0.04799 0.071775,-0.08485 0.1241201,-0.111026 0.052352,-0.02763 0.1102404,-0.04179 0.1727715,-0.04179 0.08871,0 0.162006,0.02582 0.220174,0.07672 0.05817,0.04945 0.08732,0.115457 0.08732,0.198351 v 0.06799 c -0.03054,-0.01891 -0.07531,-0.03598 -0.133477,-0.05052 -0.05671,-0.01454 -0.118351,-0.02184 -0.185245,-0.02184 -0.1352422,0 -0.2474791,0.03353 -0.3361862,0.100423 -0.088708,0.06544 -0.132854,0.157274 -0.132854,0.275069 0,0.07126 0.017493,0.134773 0.052393,0.191489 0.0349,0.05527 0.084461,0.09899 0.1484465,0.130984 0.063981,0.032 0.1368659,0.04803 0.2183037,0.04803 0.07998,10e-7 0.151823,-0.01895 0.215807,-0.05676 0.06398,-0.03781 0.112088,-0.08342 0.144081,-0.137222 h 0.0087 v 0.159056 h 0.176513 v -0.704205 c 0,-0.1367 -0.04373,-0.244566 -0.130981,-0.323096 -0.08577,-0.07998 -0.204254,-0.119756 -0.355493,-0.119756 z M 8.150441,11.54388 c 0.075619,0 0.1382978,0.01603 0.187741,0.04803 0.050898,0.03199 0.087755,0.07134 0.1110228,0.117885 0.023267,0.04654 0.036386,0.09318 0.039295,0.139718 H 7.8098879 c 0.018905,-0.09162 0.058262,-0.165542 0.117884,-0.220803 0.061077,-0.05671 0.1354163,-0.08483 0.2226691,-0.08483 z m -1.5792683,0.268209 h 0.4097864 c 0.05526,0 0.1044028,0.01312 0.1465751,0.03929 0.042172,0.02472 0.074658,0.05825 0.097925,0.100421 0.023267,0.04072 0.034929,0.08299 0.034929,0.126619 0,0.04363 -0.011663,0.08632 -0.034929,0.12849 -0.021815,0.04072 -0.05388,0.07424 -0.096053,0.100422 -0.040718,0.02618 -0.087363,0.03929 -0.1397142,0.03929 H 6.5711727 Z m 3.5071983,0.150321 c 0.05671,0 0.110646,0.0073 0.161544,0.02183 0.0509,0.01454 0.09421,0.03349 0.129111,0.05676 0,0.06398 -0.01604,0.123334 -0.04803,0.177141 -0.03199,0.05381 -0.0753,0.0965 -0.129111,0.128492 -0.0538,0.03199 -0.111487,0.04803 -0.174018,0.04803 -0.071257,0 -0.1306037,-0.01895 -0.1771385,-0.05676 -0.04653,-0.03781 -0.069858,-0.08737 -0.069858,-0.14845 0,-0.0669 0.025819,-0.121247 0.076717,-0.16342 0.052352,-0.04217 0.1289829,-0.06361 0.2307775,-0.06361 z" />
</svg>
