<?xml version="1.0" encoding="UTF-8" standalone="no"?>
<!-- Created with Inkscape (http://www.inkscape.org/) -->

<svg
   width="64"
   height="64"
   viewBox="0 0 16.933333 16.933333"
   version="1.1"
   id="svg5"
   inkscape:version="1.1.1 (3bf5ae0d25, 2021-09-20, custom)"
   sodipodi:docname="google-drive.svg"
   xmlns:inkscape="http://www.inkscape.org/namespaces/inkscape"
   xmlns:sodipodi="http://sodipodi.sourceforge.net/DTD/sodipodi-0.dtd"
   xmlns="http://www.w3.org/2000/svg"
   xmlns:svg="http://www.w3.org/2000/svg">
  <sodipodi:namedview
     id="namedview7"
     pagecolor="#ffffff"
     bordercolor="#666666"
     borderopacity="1.0"
     inkscape:pageshadow="2"
     inkscape:pageopacity="0.0"
     inkscape:pagecheckerboard="0"
     inkscape:document-units="px"
     showgrid="true"
     units="px"
     height="48px"
     inkscape:zoom="7.9999996"
     inkscape:cx="29.625001"
     inkscape:cy="49.437502"
     inkscape:window-width="1920"
     inkscape:window-height="1019"
     inkscape:window-x="0"
     inkscape:window-y="0"
     inkscape:window-maximized="1"
     inkscape:current-layer="svg5"
     inkscape:lockguides="true" />
  <defs
     id="defs2">
    <linearGradient
       id="path29_1_"
       gradientUnits="userSpaceOnUse"
       x1="239.3423"
       y1="1021.4185"
       x2="258.2334"
       y2="1054.1401"
       gradientTransform="matrix(0.04277371,0,0,0.04277371,-1.4422934,-34.435687)">
      <stop
         offset="0"
         style="stop-color:#991700;stop-opacity:0"
         id="stop16" />
      <stop
         offset="1"
         style="stop-color:#991700;stop-opacity:0.1"
         id="stop18" />
    </linearGradient>
  </defs>
  <circle
     style="fill:#ffffff;stroke-width:0.529167;stroke-linecap:round;stroke-linejoin:round;stroke-dasharray:6.35, 0.529167"
     id="path859"
     cx="8.4666662"
     cy="8.4666662"
     r="7.4083333" />
  <path
     inkscape:connector-curvature="0"
     d="m 4.1996921,11.667729 0.4433968,0.765867 c 0.092134,0.161235 0.2245777,0.28792 0.3800545,0.380055 L 6.6067036,10.072654 H 3.4395833 c 0,0.17851 0.046068,0.357019 0.1382017,0.518254 z"
     id="path2-0"
     style="fill:#0066da;stroke-width:0.115167" />
  <path
     inkscape:connector-curvature="0"
     d="M 8.4666664,6.8479496 6.8831059,4.1069518 C 6.7276295,4.1990807 6.5951862,4.3257705 6.5030518,4.4870056 L 3.577785,9.554397 a 1.043422,1.043422 0 0 0 -0.1382017,0.518257 h 3.1671203 z"
     id="path4-3"
     style="fill:#00ac47;stroke-width:0.115167" />
  <path
     inkscape:connector-curvature="0"
     d="m 11.91019,12.813651 c 0.155476,-0.09213 0.28792,-0.21882 0.380054,-0.380055 l 0.184268,-0.316712 0.881035,-1.525976 c 0.09214,-0.161235 0.138203,-0.339744 0.138203,-0.518254 h -3.167351 l 0.673963,1.324431 z"
     id="path6-0"
     style="fill:#ea4335;stroke-width:0.115167" />
  <path
     inkscape:connector-curvature="0"
     d="M 8.4666664,6.8479496 10.050226,4.1069518 C 9.8947487,4.0148175 9.7162389,3.9687499 9.5319701,3.9687499 h -2.130608 c -0.1842688,0 -0.3627791,0.051828 -0.5182562,0.1382019 z"
     id="path8-4"
     style="fill:#00832d;stroke-width:0.115167" />
  <path
     inkscape:connector-curvature="0"
     d="M 10.32663,10.072654 H 6.6067036 l -1.5835602,2.740997 c 0.1554768,0.09214 0.333987,0.138201 0.5182559,0.138201 h 5.8505337 c 0.184269,0 0.362779,-0.05183 0.518257,-0.138201 z"
     id="path10-4"
     style="fill:#2684fc;stroke-width:0.115167" />
  <path
     inkscape:connector-curvature="0"
     d="M 11.892914,7.0207018 10.43028,4.4870055 C 10.338151,4.3257704 10.205703,4.1990858 10.050226,4.1069517 L 8.4666664,6.8479496 10.32663,10.072654 h 3.161361 c 0,-0.1785113 -0.04606,-0.357022 -0.138202,-0.518257 z"
     id="path12"
     style="fill:#ffba00;stroke-width:0.115167" />
</svg>
