<?xml version="1.0" encoding="UTF-8" standalone="no"?>
<svg
   viewbox="0 0 200 200"
   version="1.1"
   id="svg4"
   sodipodi:docname="hypnotix.svg"
   width="64"
   height="64"
   inkscape:version="1.1.1 (3bf5ae0d25, 2021-09-20, custom)"
   xmlns:inkscape="http://www.inkscape.org/namespaces/inkscape"
   xmlns:sodipodi="http://sodipodi.sourceforge.net/DTD/sodipodi-0.dtd"
   xmlns="http://www.w3.org/2000/svg"
   xmlns:svg="http://www.w3.org/2000/svg">
  <defs
     id="defs8" />
  <sodipodi:namedview
     id="namedview6"
     pagecolor="#ffffff"
     bordercolor="#666666"
     borderopacity="1.0"
     inkscape:pageshadow="2"
     inkscape:pageopacity="0.0"
     inkscape:pagecheckerboard="0"
     showgrid="false"
     inkscape:zoom="8"
     inkscape:cx="20.25"
     inkscape:cy="40.3125"
     inkscape:window-width="1920"
     inkscape:window-height="996"
     inkscape:window-x="0"
     inkscape:window-y="0"
     inkscape:window-maximized="1"
     inkscape:current-layer="svg4"
     showguides="true" />
  <path
     d="M 2,32 C 2,10.4 10.4,2 32,2 53.6,2 62,10.4 62,32 62,53.6 53.6,62 32,62 10.4,62 2,53.6 2,32"
     id="path2"
     style="stroke-width:0.3;fill:#40c4ce;fill-opacity:1;stroke:none" />
  <path
     id="rect1303"
     style="fill:#ffffff;fill-opacity:1;stroke-width:3.97495;stroke-linecap:round;stroke-linejoin:round"
     d="m 15,16 c -1.662,0 -3,1.338 -3,3 v 20 c 0,1.662 1.338,3 3,3 h 34 c 1.662,0 3,-1.338 3,-3 V 19 c 0,-1.662 -1.338,-3 -3,-3 z"
     sodipodi:nodetypes="cssccsscc" />
  <path
     d="m 21.5,45 c -0.831,0 -1.5,0.669 -1.5,1.5 0,0.831 0.669,1.5 1.5,1.5 h 21 C 43.331,48 44,47.331 44,46.5 44,45.669 43.331,45 42.5,45 Z"
     style="fill:#a8e4e8;fill-opacity:1;stroke-width:3.97495;stroke-linecap:round;stroke-linejoin:round"
     id="path6398"
     sodipodi:nodetypes="sssssss" />
  <path
     style="color:#000000;fill:#24838b;fill-opacity:1;stroke:none;stroke-width:0.471925;stroke-linecap:round;stroke-linejoin:round;-inkscape-stroke:none"
     d="M 27.719773,22.156864 C 26.950466,21.704077 25.999706,22.285615 26,23.208773 v 11.582456 c -2.94e-4,0.923157 0.950466,1.504695 1.719773,1.051908 l 9.691633,-5.791228 c 0.196198,-0.115291 0.343346,-0.275603 0.441446,-0.458424 C 37.950951,29.410663 38,29.205331 38,29 c 0,-0.205331 -0.04905,-0.410663 -0.147148,-0.593484 -0.0981,-0.182822 -0.245248,-0.343133 -0.441446,-0.458424 z"
     id="path1477"
     sodipodi:nodetypes="cccccssscc" />
</svg>
