<?xml version="1.0" encoding="UTF-8" standalone="no"?>
<!-- Created with Inkscape (http://www.inkscape.org/) -->

<svg
   width="64"
   height="64"
   viewBox="0 0 16.933333 16.933333"
   version="1.1"
   id="svg5"
   inkscape:version="1.1.1 (3bf5ae0d25, 2021-09-20, custom)"
   sodipodi:docname="java.svg"
   xmlns:inkscape="http://www.inkscape.org/namespaces/inkscape"
   xmlns:sodipodi="http://sodipodi.sourceforge.net/DTD/sodipodi-0.dtd"
   xmlns="http://www.w3.org/2000/svg"
   xmlns:svg="http://www.w3.org/2000/svg">
  <sodipodi:namedview
     id="namedview7"
     pagecolor="#ffffff"
     bordercolor="#666666"
     borderopacity="1.0"
     inkscape:pageshadow="2"
     inkscape:pageopacity="0.0"
     inkscape:pagecheckerboard="0"
     inkscape:document-units="px"
     showgrid="false"
     units="px"
     height="48px"
     inkscape:zoom="2.828427"
     inkscape:cx="126.21857"
     inkscape:cy="100.9395"
     inkscape:window-width="1920"
     inkscape:window-height="1019"
     inkscape:window-x="0"
     inkscape:window-y="0"
     inkscape:window-maximized="1"
     inkscape:current-layer="svg5"
     inkscape:lockguides="true" />
  <defs
     id="defs2" />
  <circle
     style="fill:#f2f2f2;fill-opacity:1;stroke-width:0.529167;stroke-linecap:round;stroke-linejoin:round;stroke-dasharray:6.35, 0.529167"
     id="path1179"
     cx="8.4666662"
     cy="8.4666662"
     r="7.4083333" />
  <path
     id="path8"
     style="fill:#f58312;fill-opacity:1;fill-rule:evenodd;stroke-width:1.00006"
     d="m 9.6144576,2.9104166 -5.29e-4,0.00156 C 10.095327,4.7293378 7.9171883,5.276232 7.1319092,6.407371 6.5963359,7.179529 7.3954299,8.008416 8.4816977,8.947784 8.0583704,8.029903 6.6198769,7.22472 8.4816977,5.814125 10.806596,4.0548258 9.6144446,2.9104275 9.6144446,2.9104275 Z m 1.4381554,2.2458577 c 0,0 -3.930703,0.9407847 -2.0541386,3.0142867 l 0.00156,0.0052 C 9.5541806,8.785784 8.8512063,9.33693 8.8512063,9.33693 c 0,0 1.4073487,-0.697882 0.7642943,-1.567863 C 9.0084386,6.955388 8.5473371,6.553725 11.052624,5.1562737 Z" />
  <path
     id="path10"
     style="fill:#4d7997;fill-opacity:1;fill-rule:evenodd;stroke-width:1.00006"
     d="m 11.748694,8.863025 c -0.13823,2.26e-4 -0.284961,0.02376 -0.435632,0.07441 -0.120642,0.04107 -0.181901,0.135392 -0.181901,0.135392 0,0 0.07631,-0.02834 0.246497,-0.06304 0.694314,-0.138865 1.689499,0.891591 -0.463538,1.964738 l -0.001,-5.29e-4 c -0.01016,0.02668 -0.04341,0.05478 -0.04341,0.05478 2.561177,-0.645053 2.004609,-2.167596 0.879016,-2.16576 z M 7.089547,8.967928 c -0.2291726,8e-5 -0.9159722,0.0354 -1.725993,0.410311 -1.1754958,0.545677 2.917109,0.795202 5.033802,0.260966 0.219704,-0.143928 0.525549,-0.269751 0.525549,-0.269751 0,0 -0.8663,0.14917 -1.7311609,0.218591 -1.058346,0.08423 -2.1899052,0.100721 -2.7605548,0.02791 -1.3367824,-0.17214 0.7002203,-0.638803 0.7338052,-0.646472 -0.00558,-3.17e-4 -0.028433,-0.0016 -0.075448,-0.0016 z m 0.075448,0.0016 c 6.879e-4,4.1e-5 0.0062,0 0.0062,0 l -5.291e-4,-0.0016 c 0,0 -0.00541,0.0015 -0.00568,0.0016 z m 0.2464967,1.903243 c -0.1856883,6.6e-5 -0.7425571,0.02902 -1.3988812,0.332796 -0.9526259,0.442128 2.3637512,0.644228 4.0788215,0.211357 0.178022,-0.116635 0.425814,-0.218602 0.425814,-0.218602 0,0 -0.7022554,0.120999 -1.4030159,0.17725 -0.8574206,0.06824 -1.77367,0.08174 -2.2360392,0.02274 -1.0810584,-0.139204 0.559108,-0.516314 0.5927286,-0.523999 -0.00551,-3.17e-4 -0.022582,-0.0016 -0.059428,-0.0016 z m 0.059428,0.0016 c 8.996e-4,5.1e-5 0.0062,0 0.0062,0 l -5.291e-4,-0.0016 c 0,0 -0.00534,0.0015 -0.00568,0.0016 z m -1.6939535,1.344104 c -0.7762124,-0.0018 -2.4122488,0.704574 -0.9684163,0.927592 4.5820907,0.712886 8.3521411,-0.320895 7.1633881,-0.833541 l -5.3e-4,5.29e-4 c 0,0 0.326167,0.256216 -0.357084,0.454753 -1.297902,0.375496 -5.3994684,0.489175 -6.5386193,0.01292 -0.4085148,-0.170181 0.3591751,-0.405089 0.6004801,-0.456303 0.2531573,-0.05292 0.3953248,-0.04289 0.3953248,-0.04289 -0.063698,-0.04346 -0.1675392,-0.06275 -0.2945558,-0.06305 z m 6.9236088,0.656807 c 0,0 -0.145852,0.353871 -1.71049,0.636654 -1.7644444,0.317503 -3.9405627,0.281229 -5.2317222,0.07803 0,0 0.2643958,0.208244 1.6236736,0.292489 2.0670902,0.127425 5.2423066,-0.07119 5.3185386,-1.007174 z" />
</svg>
