<?xml version="1.0" encoding="UTF-8" standalone="no"?>
<svg
   viewbox="0 0 200 200"
   version="1.1"
   id="svg4"
   sodipodi:docname="pdf-slicer.svg"
   width="64"
   height="64"
   inkscape:version="1.1.1 (3bf5ae0d25, 2021-09-20, custom)"
   xmlns:inkscape="http://www.inkscape.org/namespaces/inkscape"
   xmlns:sodipodi="http://sodipodi.sourceforge.net/DTD/sodipodi-0.dtd"
   xmlns="http://www.w3.org/2000/svg"
   xmlns:svg="http://www.w3.org/2000/svg">
  <defs
     id="defs8" />
  <sodipodi:namedview
     id="namedview6"
     pagecolor="#ffffff"
     bordercolor="#666666"
     borderopacity="1.0"
     inkscape:pageshadow="2"
     inkscape:pageopacity="0.0"
     inkscape:pagecheckerboard="0"
     showgrid="false"
     inkscape:zoom="8.5405241"
     inkscape:cx="23.769033"
     inkscape:cy="39.283303"
     inkscape:window-width="1920"
     inkscape:window-height="996"
     inkscape:window-x="0"
     inkscape:window-y="0"
     inkscape:window-maximized="1"
     inkscape:current-layer="svg4"
     showguides="true" />
  <path
     d="M 2,32 C 2,10.4 10.4,2 32,2 53.6,2 62,10.4 62,32 62,53.6 53.6,62 32,62 10.4,62 2,53.6 2,32"
     id="path2"
     style="stroke-width:0.3;fill:#e73131;fill-opacity:1" />
  <path
     id="path5563"
     style="font-weight:500;font-size:20.1907px;line-height:1.25;font-family:'Noto Sans CJK KR';-inkscape-font-specification:'Noto Sans CJK KR Medium';stroke-width:0.506784;fill:#ffffff"
     d="m 12,17 v 15 h 2.341797 v -5.67988 h 2.240234 c 3.230512,0 5.613281,-1.506059 5.613281,-4.762436 C 22.195312,18.158841 19.813228,17 16.501953,17 Z m 13.083984,0 v 15 h 3.976563 c 4.441955,0 7.046875,-2.667607 7.046875,-7.552172 C 36.107422,19.542912 33.502552,17 28.939453,17 Z m 14.113281,0 v 15 h 2.341797 v -6.451634 h 5.511719 V 23.573697 H 41.539062 V 18.994356 H 48 V 17 Z m -24.855468,1.911668 h 1.9375 c 2.362312,0 3.59375,0.651485 3.59375,2.646016 0,1.933474 -1.150067,2.850768 -3.492188,2.850768 h -2.039062 z m 13.083984,0.02166 h 1.351562 c 3.19013,0 4.906251,1.76967 4.90625,5.514503 0,3.724482 -1.71612,5.616878 -4.90625,5.616878 h -1.351562 z" />
  <path
     id="rect6270"
     style="fill:#7d0000;stroke-width:4;stroke-linecap:round;stroke-linejoin:round"
     d="m 46,32 -1,1 v 7 2 3 0.179688 A 3,3 0 0 0 43,48 a 3,3 0 0 0 3,3 3,3 0 0 0 3,-3 3,3 0 0 0 -2,-2.828125 V 42 h 3.179688 A 3,3 0 0 0 53,44 3,3 0 0 0 56,41 3,3 0 0 0 53,38 3,3 0 0 0 50.179688,40 H 47 v -7 z m 7,7.5 A 1.5,1.5 0 0 1 54.5,41 1.5,1.5 0 0 1 53,42.5 1.5,1.5 0 0 1 51.5,41 1.5,1.5 0 0 1 53,39.5 Z m -15,0.5 -1,1 1,1 h 6 v -2 z m 8,6.5 A 1.5,1.5 0 0 1 47.5,48 1.5,1.5 0 0 1 46,49.5 1.5,1.5 0 0 1 44.5,48 1.5,1.5 0 0 1 46,46.5 Z" />
  <path
     id="rect7249"
     style="fill:#7d0000;stroke-width:4;stroke-linecap:round;stroke-linejoin:round"
     d="m 14,39.094864 h 19 c 1.108,0 2,0.892 2,2 0,1.108 -0.892,2 -2,2 H 14 c -1.108,0 -2,-0.892 -2,-2 0,-1.108 0.892,-2 2,-2 z" />
</svg>
