<?xml version="1.0" encoding="UTF-8" standalone="no"?>
<svg
   viewbox="0 0 200 200"
   version="1.1"
   id="svg4"
   sodipodi:docname="preferences-desktop-locale.svg"
   width="64"
   height="64"
   inkscape:version="1.1.1 (3bf5ae0d25, 2021-09-20, custom)"
   xmlns:inkscape="http://www.inkscape.org/namespaces/inkscape"
   xmlns:sodipodi="http://sodipodi.sourceforge.net/DTD/sodipodi-0.dtd"
   xmlns="http://www.w3.org/2000/svg"
   xmlns:svg="http://www.w3.org/2000/svg">
  <defs
     id="defs8" />
  <sodipodi:namedview
     id="namedview6"
     pagecolor="#ffffff"
     bordercolor="#666666"
     borderopacity="1.0"
     inkscape:pageshadow="2"
     inkscape:pageopacity="0.0"
     inkscape:pagecheckerboard="0"
     showgrid="false"
     inkscape:zoom="9.1570328"
     inkscape:cx="29.048711"
     inkscape:cy="44.938138"
     inkscape:window-width="1920"
     inkscape:window-height="1000"
     inkscape:window-x="0"
     inkscape:window-y="0"
     inkscape:window-maximized="1"
     inkscape:current-layer="svg4"
     showguides="false" />
  <path
     d="M 2,32 C 2,10.4 10.4,2 32,2 53.6,2 62,10.4 62,32 62,53.6 53.6,62 32,62 10.4,62 2,53.6 2,32"
     id="path2"
     style="stroke-width:0.3;fill:#28c7da;fill-opacity:1" />
  <path
     id="rect6176"
     style="fill:#ffffff;fill-opacity:1;stroke:none;stroke-width:2;stroke-linecap:round;stroke-linejoin:round"
     d="m 16,14 c -1.662002,0 -3,1.338 -3,3 v 12 c 0,2.770001 2.230003,5 5,5 h 6 v -2 h -6 c -1.661998,0 -3,-1.338 -3,-3 V 17 c 0,-0.554 0.446001,-1 1,-1 h 18 c 0.553999,0 1,0.446 1,1 v 8 c -4.69e-4,0.980927 -1.410239,3.843938 -3.5,6 -2.292994,2.512592 -4.500208,5.738933 -4.5,8 v 8 c 0,1.662002 1.337998,3 3,3 h 18 c 1.662,0 3,-1.337998 3,-3 V 35 c 0,-2.770001 -2.23,-5 -5,-5 h -6 v 2 h 6 c 1.662,0 3,1.338002 3,3 v 12 c 0,0.553999 -0.446,1 -1,1 H 30 c -0.553999,0 -1,-0.446001 -1,-1 v -8 c 0.01122,-1.767065 1.198935,-3.919783 3.902344,-7 C 35.195338,29.487411 36.99915,26.397113 37,25 v -8 c 0,-1.662 -1.338002,-3 -3,-3 z m 8.783203,5 a 1.0001001,1.0001001 0 0 0 -0.916015,0.576172 L 20,27.835938 l 1.816406,0.849609 0.966797,-2.068359 h 3.871094 l 0.978515,2.171874 1.824219,-0.828124 -3.773437,-8.371094 A 1.0001001,1.0001001 0 0 0 24.783203,19 Z m -0.0293,3.396484 1,2.220704 H 23.716797 Z M 42,35 v 10 h 2 v -5 h 2 v -2 h -2 v -3 z m -7,1 v 2 h 3 c 3e-5,1.401933 -1.30622,2.763415 -3,4.330078 L 36,43.5 c 2.06115,-1.535923 4.00053,-4.451531 4,-5.5 v -1 a 0.99999994,0.99999994 0 0 0 -1,-1 z" />
</svg>
