<?xml version="1.0" encoding="UTF-8" standalone="no"?>
<!-- Created with Inkscape (http://www.inkscape.org/) -->

<svg
   width="16"
   height="16"
   viewBox="0 0 4.2333332 4.2333335"
   version="1.1"
   id="svg11945"
   inkscape:version="1.1.1 (3bf5ae0d25, 2021-09-20)"
   sodipodi:docname="folder-video-symbolic.svg"
   xmlns:inkscape="http://www.inkscape.org/namespaces/inkscape"
   xmlns:sodipodi="http://sodipodi.sourceforge.net/DTD/sodipodi-0.dtd"
   xmlns="http://www.w3.org/2000/svg"
   xmlns:svg="http://www.w3.org/2000/svg">
  <sodipodi:namedview
     id="namedview11947"
     pagecolor="#ffffff"
     bordercolor="#666666"
     borderopacity="1.0"
     inkscape:pageshadow="2"
     inkscape:pageopacity="0.0"
     inkscape:pagecheckerboard="0"
     inkscape:document-units="px"
     showgrid="false"
     units="in"
     inkscape:zoom="45.254834"
     inkscape:cx="3.6239223"
     inkscape:cy="9.0156115"
     inkscape:window-width="1920"
     inkscape:window-height="1009"
     inkscape:window-x="-8"
     inkscape:window-y="-8"
     inkscape:window-maximized="1"
     inkscape:current-layer="svg11945"
     showguides="true" />
  <defs
     id="defs11942" />
  <path
     id="rect20156"
     style="opacity:1;fill:#555555;fill-opacity:1;stroke:none;stroke-width:1.14286;stroke-linecap:round;stroke-miterlimit:4;stroke-dasharray:none"
     d="M 2 0 C 0.89199996 -2.9605947e-16 0 0.89199996 0 2 L 0 14 C -2.9605947e-16 15.108 0.89199996 16 2 16 L 14 16 C 15.108 16 16 15.108 16 14 L 16 2 C 16 0.89199996 15.108 0 14 0 L 2 0 z M 2 1 L 14 1 C 14.554 1 15 1.446 15 2 L 15 14 C 15 14.554 14.554 15 14 15 L 2 15 C 1.446 15 1 14.554 1 14 L 1 2 C 1 1.446 1.446 1 2 1 z M 6.0117188 3.9980469 A 1.0001001 1.0001001 0 0 0 5.5078125 4.1269531 A 1.0001001 1.0001001 0 0 0 4.9980469 4.9980469 L 4.9980469 10.998047 A 1.0001001 1.0001001 0 0 0 6.5117188 11.855469 L 11.515625 8.8574219 A 1.0001001 1.0001001 0 0 0 11.515625 7.1464844 L 6.5117188 4.140625 A 1.0001001 1.0001001 0 0 0 6.0117188 3.9980469 z M 6 5 L 11 8 L 6 11 L 6 5 z "
     transform="scale(0.26458333)" />
</svg>
