<?xml version="1.0" encoding="UTF-8" standalone="no"?>
<!-- Created with Inkscape (http://www.inkscape.org/) -->

<svg
   width="16"
   height="16"
   viewBox="0 0 4.2333332 4.2333335"
   version="1.1"
   id="svg847"
   sodipodi:docname="start-here-symbolic.svg"
   inkscape:version="1.1.1 (3bf5ae0d25, 2021-09-20, custom)"
   xmlns:inkscape="http://www.inkscape.org/namespaces/inkscape"
   xmlns:sodipodi="http://sodipodi.sourceforge.net/DTD/sodipodi-0.dtd"
   xmlns="http://www.w3.org/2000/svg"
   xmlns:svg="http://www.w3.org/2000/svg"
   xmlns:rdf="http://www.w3.org/1999/02/22-rdf-syntax-ns#"
   xmlns:cc="http://creativecommons.org/ns#"
   xmlns:dc="http://purl.org/dc/elements/1.1/">
  <defs
     id="defs841" />
  <sodipodi:namedview
     id="base"
     pagecolor="#ffffff"
     bordercolor="#666666"
     borderopacity="1.0"
     inkscape:pageopacity="0.0"
     inkscape:pageshadow="2"
     inkscape:zoom="5.2149125"
     inkscape:cx="-18.792262"
     inkscape:cy="29.051302"
     inkscape:document-units="px"
     inkscape:current-layer="svg847"
     showgrid="false"
     units="px"
     inkscape:window-width="1920"
     inkscape:window-height="996"
     inkscape:window-x="0"
     inkscape:window-y="0"
     inkscape:window-maximized="1"
     showguides="false"
     inkscape:pagecheckerboard="0" />
  <metadata
     id="metadata844">
    <rdf:RDF>
      <cc:Work
         rdf:about="">
        <dc:format>image/svg+xml</dc:format>
        <dc:type
           rdf:resource="http://purl.org/dc/dcmitype/StillImage" />
      </cc:Work>
    </rdf:RDF>
  </metadata>
  <path
     id="circle6"
     style="fill:#555555;fill-opacity:1;stroke-width:0.0584795"
     class="st1"
     d="M 4 3 A 1.0000001 1.0000001 0 0 0 3 4 A 1.0000001 1.0000001 0 0 0 4 5 A 1.0000001 1.0000001 0 0 0 5 4 A 1.0000001 1.0000001 0 0 0 4 3 z M 8 3 A 1.0000001 1.0000001 0 0 0 7 4 A 1.0000001 1.0000001 0 0 0 8 5 A 1.0000001 1.0000001 0 0 0 9 4 A 1.0000001 1.0000001 0 0 0 8 3 z M 12 3 A 1.0000001 1.0000001 0 0 0 11 4 A 1.0000001 1.0000001 0 0 0 12 5 A 1.0000001 1.0000001 0 0 0 13 4 A 1.0000001 1.0000001 0 0 0 12 3 z M 4 7 A 1.0000001 1.0000001 0 0 0 3 8 A 1.0000001 1.0000001 0 0 0 4 9 A 1.0000001 1.0000001 0 0 0 5 8 A 1.0000001 1.0000001 0 0 0 4 7 z M 8 7 A 1.0000001 1.0000001 0 0 0 7 8 A 1.0000001 1.0000001 0 0 0 8 9 A 1.0000001 1.0000001 0 0 0 9 8 A 1.0000001 1.0000001 0 0 0 8 7 z M 12 7 A 1.0000001 1.0000001 0 0 0 11 8 A 1.0000001 1.0000001 0 0 0 12 9 A 1.0000001 1.0000001 0 0 0 13 8 A 1.0000001 1.0000001 0 0 0 12 7 z M 4 11 A 1.0000001 1.0000001 0 0 0 3 12 A 1.0000001 1.0000001 0 0 0 4 13 A 1.0000001 1.0000001 0 0 0 5 12 A 1.0000001 1.0000001 0 0 0 4 11 z M 8 11 A 1.0000001 1.0000001 0 0 0 7 12 A 1.0000001 1.0000001 0 0 0 8 13 A 1.0000001 1.0000001 0 0 0 9 12 A 1.0000001 1.0000001 0 0 0 8 11 z M 12 11 A 1.0000001 1.0000001 0 0 0 11 12 A 1.0000001 1.0000001 0 0 0 12 13 A 1.0000001 1.0000001 0 0 0 13 12 A 1.0000001 1.0000001 0 0 0 12 11 z "
     transform="scale(0.26458333)" />
</svg>
