<?xml version="1.0" encoding="UTF-8" standalone="no"?>
<!-- Created with Inkscape (http://www.inkscape.org/) -->

<svg
   width="24"
   height="24"
   viewBox="0 0 6.3499997 6.3500003"
   version="1.1"
   id="svg11945"
   inkscape:version="1.1.1 (3bf5ae0d25, 2021-09-20, custom)"
   sodipodi:docname="folder-images.svg"
   xmlns:inkscape="http://www.inkscape.org/namespaces/inkscape"
   xmlns:sodipodi="http://sodipodi.sourceforge.net/DTD/sodipodi-0.dtd"
   xmlns="http://www.w3.org/2000/svg"
   xmlns:svg="http://www.w3.org/2000/svg">
  <sodipodi:namedview
     id="namedview11947"
     pagecolor="#ffffff"
     bordercolor="#666666"
     borderopacity="1.0"
     inkscape:pageshadow="2"
     inkscape:pageopacity="0.0"
     inkscape:pagecheckerboard="0"
     inkscape:document-units="px"
     showgrid="false"
     units="in"
     inkscape:zoom="32"
     inkscape:cx="7.140625"
     inkscape:cy="10.53125"
     inkscape:window-width="1920"
     inkscape:window-height="1006"
     inkscape:window-x="0"
     inkscape:window-y="0"
     inkscape:window-maximized="1"
     inkscape:current-layer="svg11945"
     showguides="false" />
  <defs
     id="defs11942" />
  <path
     id="rect20156"
     style="opacity:1;fill:#dedede;fill-opacity:1;stroke:none;stroke-width:0.302382;stroke-linecap:round;stroke-miterlimit:4;stroke-dasharray:none"
     d="m 1.5875,1.0583333 c -0.2931584,0 -0.5291667,0.2360083 -0.5291667,0.5291667 v 3.175 c 0,0.2931583 0.2360083,0.5291666 0.5291667,0.5291666 h 3.1749999 c 0.2931583,0 0.5291667,-0.2360083 0.5291667,-0.5291666 v -3.175 c 0,-0.2931584 -0.2360084,-0.5291667 -0.5291667,-0.5291667 z m 0,0.2645833 h 3.1749999 c 0.1465792,0 0.290413,0.1202979 0.2645833,0.2645834 V 3.3301492 L 4.4198851,2.7223476 c -0.051601,-0.05128 -0.1190905,-0.076998 -0.1865518,-0.076998 -0.067461,0 -0.134951,0.025718 -0.1865519,0.076998 L 2.9098999,3.7532923 2.3042521,3.252031 c -0.1034258,-0.1038609 -0.2712285,-0.1038609 -0.3746542,0 L 1.3229166,3.8593159 V 1.5875 c 0,-0.1465792 0.1180042,-0.2645834 0.2645834,-0.2645834 z M 2.1166666,1.5875 C 1.824416,1.5875 1.5875,1.824416 1.5875,2.1166667 c 0,0.2922506 0.236916,0.5291666 0.5291666,0.5291666 0.2922507,0 0.5291667,-0.236916 0.5291667,-0.5291666 C 2.6458333,1.824416 2.4089173,1.5875 2.1166666,1.5875 Z m 0,0.2645833 c 0.1461254,0 0.2645833,0.118458 0.2645834,0.2645834 -1e-7,0.1461253 -0.118458,0.2645833 -0.2645834,0.2645833 -0.1461253,0 -0.2645833,-0.118458 -0.2645833,-0.2645833 0,-0.1461254 0.118458,-0.2645834 0.2645833,-0.2645834 z M 4.2379841,2.909933 c 0.03323,8.123e-4 0.065663,0.014328 0.089917,0.038241 l 0.699182,0.699269 V 4.7625 c 0,0.1465791 -0.1180041,0.2645833 -0.2645833,0.2645833 H 1.5875 C 1.4409208,5.0270833 1.3229166,4.9090791 1.3229166,4.7625 V 4.176609 L 2.0231323,3.4773401 c 0.04841,-0.047995 0.1253627,-0.05135 0.1777669,-0.00775 L 2.8313517,3.994106 c 0.045932,0.041326 0.1186835,0.03375 0.1529622,-0.00517 L 4.1460001,2.9440394 c 0.01673,-0.015001 0.037004,-0.025494 0.058911,-0.030489 0.011054,-0.00258 0.021997,-0.00389 0.033073,-0.00362 z"
     sodipodi:nodetypes="ssssssssssssccscccccsssssssssssssccsssscccccccs" />
</svg>
