<?xml version="1.0" encoding="UTF-8" standalone="no"?>
<!-- Created with Inkscape (http://www.inkscape.org/) -->

<svg
   width="24"
   height="24"
   viewBox="0 0 6.3499997 6.3500003"
   version="1.1"
   id="svg11945"
   inkscape:version="1.1.1 (3bf5ae0d25, 2021-09-20, custom)"
   sodipodi:docname="user-trash.svg"
   xmlns:inkscape="http://www.inkscape.org/namespaces/inkscape"
   xmlns:sodipodi="http://sodipodi.sourceforge.net/DTD/sodipodi-0.dtd"
   xmlns="http://www.w3.org/2000/svg"
   xmlns:svg="http://www.w3.org/2000/svg">
  <sodipodi:namedview
     id="namedview11947"
     pagecolor="#ffffff"
     bordercolor="#666666"
     borderopacity="1.0"
     inkscape:pageshadow="2"
     inkscape:pageopacity="0.0"
     inkscape:pagecheckerboard="0"
     inkscape:document-units="px"
     showgrid="false"
     units="in"
     inkscape:zoom="16"
     inkscape:cx="1.03125"
     inkscape:cy="9.125"
     inkscape:window-width="1920"
     inkscape:window-height="1006"
     inkscape:window-x="0"
     inkscape:window-y="0"
     inkscape:window-maximized="1"
     inkscape:current-layer="svg11945"
     showguides="true" />
  <defs
     id="defs11942" />
  <path
     id="rect843"
     style="fill:#dedede;fill-opacity:1;stroke-width:1.32292;stroke-linecap:round;stroke-linejoin:round"
     d="m 2.3812501,1.0583333 c -0.1465792,0 -0.2645834,0.1192159 -0.2645834,0.2645833 V 1.5875 h -0.79375 V 1.8520833 H 1.5875001 L 1.8520834,4.7625 c 0.026541,0.2919547 0.2360083,0.5291666 0.5291667,0.5291666 H 3.96875 c 0.2931584,0 0.5026255,-0.2372119 0.5291667,-0.5291666 L 4.7625,1.8520833 H 5.0270834 V 1.5875 h -0.79375 V 1.3229166 c 0,-0.1465791 -0.1180042,-0.2645833 -0.2645834,-0.2645833 z m 0,0.2645833 H 3.96875 V 1.5875 H 2.3812501 Z M 1.8520834,1.8520833 H 4.4979167 L 4.2333334,4.7625 C 4.2200619,4.9084772 4.1153292,5.0270833 3.96875,5.0270833 H 2.3812501 C 2.234671,5.0270833 2.1299374,4.9084772 2.1166667,4.7625 Z M 2.5068238,2.38125 C 2.4367318,2.38478 2.3812501,2.442542 2.3812501,2.5135416 V 4.365625 c 0,0.07329 0.059002,0.1322916 0.1322916,0.1322916 0.07329,0 0.1322917,-0.059002 0.1322917,-0.1322916 V 2.5135416 c 0,-0.07329 -0.059002,-0.1322916 -0.1322917,-0.1322916 -0.00229,0 -0.00446,-1.139e-4 -0.00672,0 z m 0.6614583,0 C 3.0981901,2.38478 3.0427084,2.442542 3.0427084,2.5135416 V 4.365625 c 0,0.07329 0.059002,0.1322916 0.1322916,0.1322916 0.07329,0 0.1322917,-0.059002 0.1322917,-0.1322916 V 2.5135416 c 0,-0.07329 -0.059002,-0.1322916 -0.1322917,-0.1322916 -0.00229,0 -0.00446,-1.139e-4 -0.00672,0 z m 0.6614582,0 C 3.7596483,2.38478 3.7041667,2.442542 3.7041667,2.5135416 V 4.365625 c 0,0.07329 0.059002,0.1322916 0.1322917,0.1322916 0.07329,0 0.1322916,-0.059002 0.1322916,-0.1322916 V 2.5135416 c 0,-0.07329 -0.059002,-0.1322916 -0.1322916,-0.1322916 -0.0023,0 -0.00446,-1.139e-4 -0.00672,0 z" />
</svg>
