<?xml version="1.0" encoding="UTF-8" standalone="no"?>
<!-- Created with Inkscape (http://www.inkscape.org/) -->

<svg
   width="24"
   height="24"
   viewBox="0 0 6.3499997 6.3500003"
   version="1.1"
   id="svg11945"
   inkscape:version="1.1.1 (3bf5ae0d25, 2021-09-20, custom)"
   sodipodi:docname="user-home.svg"
   xmlns:inkscape="http://www.inkscape.org/namespaces/inkscape"
   xmlns:sodipodi="http://sodipodi.sourceforge.net/DTD/sodipodi-0.dtd"
   xmlns="http://www.w3.org/2000/svg"
   xmlns:svg="http://www.w3.org/2000/svg">
  <sodipodi:namedview
     id="namedview11947"
     pagecolor="#ffffff"
     bordercolor="#666666"
     borderopacity="1.0"
     inkscape:pageshadow="2"
     inkscape:pageopacity="0.0"
     inkscape:pagecheckerboard="0"
     inkscape:document-units="px"
     showgrid="false"
     units="in"
     inkscape:zoom="24.15625"
     inkscape:cx="9.7076327"
     inkscape:cy="12.129366"
     inkscape:window-width="1920"
     inkscape:window-height="1006"
     inkscape:window-x="0"
     inkscape:window-y="0"
     inkscape:window-maximized="1"
     inkscape:current-layer="svg11945"
     showguides="true" />
  <defs
     id="defs11942" />
  <path
     id="rect843"
     style="fill:#dedede;stroke-width:1.32292;stroke-linecap:round;stroke-linejoin:round"
     d="m 3.175,1.0583333 c -0.1348232,0 -0.2697953,0.051721 -0.3731038,0.1550293 L 1.2133626,2.8018961 C 1.110054,2.9052046 1.0583333,3.0401767 1.0583333,3.1749999 v 1.5875 c 0,0.2931583 0.2360084,0.5291667 0.5291667,0.5291667 h 0.5291667 c 0.1461253,0 0.2645833,-0.118458 0.2645833,-0.2645834 V 3.4395833 c 0,-0.1465792 0.1180041,-0.2645834 0.2645833,-0.2645834 h 1.0583333 c 0.1465792,0 0.2645834,0.1077455 0.2645834,0.2645834 v 1.5874999 c 0,0.1461254 0.1184579,0.2645834 0.2645833,0.2645834 H 4.7625 c 0.2931583,0 0.5291666,-0.2360084 0.5291666,-0.5291667 v -1.5875 c 0,-0.1348232 -0.051721,-0.2697953 -0.1550294,-0.3731038 L 3.5481037,1.2133626 C 3.4447959,1.1100534 3.3098234,1.0583333 3.175,1.0583333 Z" />
</svg>
