<?xml version="1.0" encoding="UTF-8" standalone="no"?>
<!-- Created with Inkscape (http://www.inkscape.org/) -->

<svg
   width="24"
   height="24"
   viewBox="0 0 6.3499997 6.3500003"
   version="1.1"
   id="svg11945"
   inkscape:version="1.1.1 (3bf5ae0d25, 2021-09-20, custom)"
   sodipodi:docname="user-desktop.svg"
   xmlns:inkscape="http://www.inkscape.org/namespaces/inkscape"
   xmlns:sodipodi="http://sodipodi.sourceforge.net/DTD/sodipodi-0.dtd"
   xmlns="http://www.w3.org/2000/svg"
   xmlns:svg="http://www.w3.org/2000/svg">
  <sodipodi:namedview
     id="namedview11947"
     pagecolor="#ffffff"
     bordercolor="#666666"
     borderopacity="1.0"
     inkscape:pageshadow="2"
     inkscape:pageopacity="0.0"
     inkscape:pagecheckerboard="0"
     inkscape:document-units="px"
     showgrid="false"
     units="in"
     inkscape:zoom="21.96875"
     inkscape:cx="7.4651494"
     inkscape:cy="11.334282"
     inkscape:window-width="1567"
     inkscape:window-height="932"
     inkscape:window-x="56"
     inkscape:window-y="50"
     inkscape:window-maximized="0"
     inkscape:current-layer="svg11945"
     showguides="false" />
  <defs
     id="defs11942" />
  <path
     id="rect6301"
     style="fill:#dedede;fill-opacity:1;stroke-width:1.44919;stroke-linecap:round;stroke-linejoin:round"
     d="m 1.5875,1.3229167 c -0.2931584,0 -0.5291667,0.2360084 -0.5291667,0.5291667 v 2.6458333 c 0,0.2931583 0.2360083,0.5291667 0.5291667,0.5291667 h 3.1749999 c 0.2931584,0 0.5291667,-0.2360084 0.5291667,-0.5291667 V 1.8520834 c 0,-0.2931583 -0.2360083,-0.5291667 -0.5291667,-0.5291667 z m 0,0.2645834 h 3.1749999 c 0.1465792,0 0.2645834,0.1180041 0.2645834,0.2645833 v 2.38125 H 1.3229166 v -2.38125 c 0,-0.1465791 0.1180042,-0.2645833 0.2645834,-0.2645833 z m 0.2645833,0.2645833 c -0.1461253,0 -0.2645833,0.118458 -0.2645833,0.2645834 0,0.1461253 0.118458,0.2645833 0.2645833,0.2645833 0.1461253,0 0.2645833,-0.118458 0.2645833,-0.2645833 0,-0.1461254 -0.118458,-0.2645834 -0.2645833,-0.2645834 z m 0,0.79375 c -0.1461253,0 -0.2645833,0.118458 -0.2645833,0.2645833 0,0.1461254 0.118458,0.2645833 0.2645833,0.2645834 0.1461253,-1e-7 0.2645833,-0.118458 0.2645833,-0.2645834 0,-0.1461253 -0.118458,-0.2645833 -0.2645833,-0.2645833 z M 1.3229166,4.4979167 h 3.7041667 c 0,0.1465792 -0.1180042,0.2645834 -0.2645834,0.2645834 H 1.5875 c -0.1465792,0 -0.2645834,-0.1180042 -0.2645834,-0.2645834 z"
     sodipodi:nodetypes="ssssssssssssccssssssssssssccssc" />
</svg>
