<?xml version="1.0" encoding="UTF-8" standalone="no"?>
<svg
   viewbox="0 0 200 200"
   version="1.1"
   id="svg4"
   sodipodi:docname="folder-network.svg"
   width="22"
   height="22"
   inkscape:version="1.1.1 (3bf5ae0d25, 2021-09-20, custom)"
   xmlns:inkscape="http://www.inkscape.org/namespaces/inkscape"
   xmlns:sodipodi="http://sodipodi.sourceforge.net/DTD/sodipodi-0.dtd"
   xmlns="http://www.w3.org/2000/svg"
   xmlns:svg="http://www.w3.org/2000/svg">
  <defs
     id="defs8" />
  <sodipodi:namedview
     id="namedview6"
     pagecolor="#ffffff"
     bordercolor="#666666"
     borderopacity="1.0"
     inkscape:pageshadow="2"
     inkscape:pageopacity="0.0"
     inkscape:pagecheckerboard="0"
     showgrid="false"
     inkscape:zoom="34.162096"
     inkscape:cx="8.3718517"
     inkscape:cy="11.46007"
     inkscape:window-width="1920"
     inkscape:window-height="1000"
     inkscape:window-x="0"
     inkscape:window-y="0"
     inkscape:window-maximized="1"
     inkscape:current-layer="svg4"
     showguides="true" />
  <path
     d="M 1,11 C 1,3.8 3.8,1 11,1 18.2,1 21,3.8 21,11 21,18.2 18.2,21 11,21 3.8,21 1,18.2 1,11"
     id="path2"
     style="fill:#e7a12e;fill-opacity:1;stroke-width:0.1" />
  <path
     id="path4921"
     style="fill:#ffffff;fill-opacity:1;stroke-width:0.875;stroke-linecap:round;stroke-linejoin:round"
     d="m 6.75,4.7500235 c -0.9664983,0 -1.75,0.7835017 -1.75,1.75 0,0.9664983 0.7835017,1.75 1.75,1.75 0.5703295,-0.00363 1.1031094,-0.2849627 1.427734,-0.753906 L 13.57422,10.773437 C 13.5276,10.928104 13.50263,11.088481 13.5,11.25 c 8.58e-4,0.124188 0.01493,0.247932 0.04199,0.36914 L 8.121092,14.913086 C 7.7892476,14.494343 7.2842904,14.250136 6.75,14.25 5.7835017,14.25 5,15.033502 5,16 5,16.966498 5.7835017,17.75 6.75,17.75 7.7164983,17.75 8.5,16.966498 8.5,16 8.4999276,15.95731 8.49829,15.91464 8.4951,15.87207 l 5.539062,-3.378906 C 14.357964,12.814012 14.794178,12.995854 15.25,13 16.216499,13 17,12.216498 17,11.25 17,10.283502 16.216499,9.5 15.25,9.5 14.831259,9.50238 14.427253,9.6548375 14.111328,9.929687 L 8.5,6.5019765 v -0.002 c 0,-0.9664983 -0.7835017,-1.75 -1.75,-1.75 z m 0,1 c 0.4142136,0 0.75,0.3357864 0.75,0.75 0,0.4142136 -0.3357864,0.75 -0.75,0.75 -0.4142136,0 -0.75,-0.3357864 -0.75,-0.75 0,-0.4142136 0.3357864,-0.75 0.75,-0.75 z M 15.25,10.5 c 0.414214,0 0.75,0.335786 0.75,0.75 0,0.414214 -0.335786,0.75 -0.75,0.75 -0.414213,0 -0.75,-0.335786 -0.75,-0.75 0,-0.414214 0.335787,-0.75 0.75,-0.75 z m -8.5,4.75 c 0.4142136,0 0.75,0.335786 0.75,0.75 0,0.414214 -0.3357864,0.75 -0.75,0.75 C 6.3357864,16.75 6,16.414214 6,16 6,15.585786 6.3357864,15.25 6.75,15.25 Z"
     sodipodi:nodetypes="cscccccccssccccscccsccsssssssssssssss" />
</svg>
