<?xml version="1.0" encoding="UTF-8" standalone="no"?>
<!-- Created with Inkscape (http://www.inkscape.org/) -->

<svg
   width="22"
   height="22"
   viewBox="0 0 5.8208331 5.8208336"
   version="1.1"
   id="svg11945"
   inkscape:version="1.1.1 (3bf5ae0d25, 2021-09-20, custom)"
   sodipodi:docname="folder-music.svg"
   xmlns:inkscape="http://www.inkscape.org/namespaces/inkscape"
   xmlns:sodipodi="http://sodipodi.sourceforge.net/DTD/sodipodi-0.dtd"
   xmlns="http://www.w3.org/2000/svg"
   xmlns:svg="http://www.w3.org/2000/svg">
  <sodipodi:namedview
     id="namedview11947"
     pagecolor="#ffffff"
     bordercolor="#666666"
     borderopacity="1.0"
     inkscape:pageshadow="2"
     inkscape:pageopacity="0.0"
     inkscape:pagecheckerboard="0"
     inkscape:document-units="px"
     showgrid="false"
     units="in"
     inkscape:zoom="32"
     inkscape:cx="9.328125"
     inkscape:cy="13.046875"
     inkscape:window-width="1920"
     inkscape:window-height="1011"
     inkscape:window-x="0"
     inkscape:window-y="0"
     inkscape:window-maximized="1"
     inkscape:current-layer="svg11945"
     showguides="true" />
  <defs
     id="defs11942" />
  <path
     id="rect17629"
     style="opacity:1;fill:#363636;fill-opacity:1;stroke-width:0.999999"
     d="M 11.5 3 C 11.467307 3 11.435187 3.0038355 11.404297 3.0097656 C 11.371717 3.016017 11.340503 3.0249053 11.310547 3.0371094 C 11.308687 3.0378656 11.306539 3.0382925 11.304688 3.0390625 C 11.281821 3.0487041 11.261196 3.0614288 11.240234 3.0742188 C 11.234981 3.0767286 11.22975 3.0793402 11.224609 3.0820312 C 11.223119 3.0830154 11.22218 3.0849358 11.220703 3.0859375 C 11.218743 3.0872275 11.216771 3.088522 11.214844 3.0898438 C 11.191222 3.1062734 11.168828 3.1243622 11.148438 3.1445312 L 11.146484 3.1464844 C 11.127209 3.1657411 11.109673 3.1867861 11.09375 3.2089844 C 11.09111 3.2122044 11.088508 3.215458 11.085938 3.21875 L 11.085938 3.2207031 C 11.082607 3.2252045 11.079347 3.229764 11.076172 3.234375 C 11.062074 3.2568632 11.049494 3.2799596 11.039062 3.3046875 C 11.027762 3.3315373 11.01822 3.3596417 11.011719 3.3886719 C 11.011047 3.3912718 11.010395 3.3938727 11.009766 3.3964844 L 11.009766 3.3984375 C 11.00976 3.3997375 11.00976 3.401032 11.009766 3.4023438 C 11.00421 3.4306713 11.000567 3.4603772 11 3.4902344 C 10.999995 3.4915344 10.999995 3.4928288 11 3.4941406 L 11 3.4960938 C 10.999994 3.4974213 11 3.4986682 11 3.5 L 11 11.671875 C 10.145707 10.614554 8.8593177 10.000055 7.5 10 C 5.0147184 9.9999996 2.9999998 12.014718 3 14.5 C 2.9999998 16.985282 5.0147184 19 7.5 19 C 9.8095317 18.998606 11.743055 17.249067 11.974609 14.951172 L 12 14.5 L 12 4.0117188 C 14.487646 4.1598498 16.654327 6.4199824 17.302734 7.7167969 C 17.992937 9.0972013 17.996094 10.498047 17.996094 10.498047 C 17.999094 10.77275 18.22333 10.993491 18.498047 10.992188 C 18.772762 10.993488 18.996994 10.772752 19 10.498047 C 19 10.498047 19.004687 8.8941245 18.195312 7.2753906 C 17.385949 5.6566575 14.667629 3 11.501953 3 L 11.5 3 z M 7.5 11 A 3.5 3.5 0 0 1 11 14.5 A 3.5 3.5 0 0 1 7.5 18 A 3.5 3.5 0 0 1 4 14.5 A 3.5 3.5 0 0 1 7.5 11 z "
     transform="scale(0.26458333)" />
</svg>
