<?xml version="1.0" encoding="UTF-8" standalone="no"?>
<!-- Created with Inkscape (http://www.inkscape.org/) -->

<svg
   width="22"
   height="22"
   viewBox="0 0 5.8208331 5.8208336"
   version="1.1"
   id="svg11945"
   inkscape:version="1.1.1 (3bf5ae0d25, 2021-09-20, custom)"
   sodipodi:docname="folder-documents.svg"
   xmlns:inkscape="http://www.inkscape.org/namespaces/inkscape"
   xmlns:sodipodi="http://sodipodi.sourceforge.net/DTD/sodipodi-0.dtd"
   xmlns="http://www.w3.org/2000/svg"
   xmlns:svg="http://www.w3.org/2000/svg">
  <sodipodi:namedview
     id="namedview11947"
     pagecolor="#ffffff"
     bordercolor="#666666"
     borderopacity="1.0"
     inkscape:pageshadow="2"
     inkscape:pageopacity="0.0"
     inkscape:pagecheckerboard="0"
     inkscape:document-units="px"
     showgrid="false"
     units="in"
     inkscape:zoom="11.313709"
     inkscape:cx="-6.4523494"
     inkscape:cy="15.423767"
     inkscape:window-width="1920"
     inkscape:window-height="996"
     inkscape:window-x="0"
     inkscape:window-y="0"
     inkscape:window-maximized="1"
     inkscape:current-layer="svg11945"
     showguides="true" />
  <defs
     id="defs11942" />
  <path
     id="rect843"
     style="fill:#555555;stroke-width:1.32292;stroke-linecap:round;stroke-linejoin:round"
     d="m 1.8520833,0.79375 c -0.2931583,0 -0.5291666,0.2360083 -0.5291666,0.5291667 v 3.1749999 c 0,0.2931584 0.2360083,0.5291667 0.5291666,0.5291667 H 3.96875 c 0.2931584,0 0.5291667,-0.2360083 0.5291667,-0.5291667 V 2.2489584 C 4.4988427,2.0265713 4.4517842,1.9393094 4.365625,1.8520834 L 3.4395834,0.92604167 C 3.3170892,0.81258982 3.2267257,0.79375 3.0427084,0.79375 Z m 0,0.2645833 h 1.0583334 v 0.79375 c 0,0.2931584 0.2479007,0.5291667 0.5291667,0.5291667 h 0.79375 V 4.4979166 C 4.2333334,4.6444958 4.1153292,4.7625 3.96875,4.7625 H 1.8520833 C 1.7055042,4.7625 1.5875,4.6444958 1.5875,4.4979166 V 1.3229167 c 0,-0.1465792 0.1180042,-0.2645834 0.2645833,-0.2645834 z m 1.3229168,0 1.0583333,1.0583334 h -0.79375 c -0.1465792,0 -0.2645833,-0.1180042 -0.2645833,-0.2645834 z"
     sodipodi:nodetypes="ssssssccccsscsscssssssccssc" />
</svg>
