<?xml version="1.0" encoding="UTF-8" standalone="no"?>
<!-- Created with Inkscape (http://www.inkscape.org/) -->

<svg
   width="22"
   height="22"
   viewBox="0 0 5.8208331 5.8208336"
   version="1.1"
   id="svg11945"
   inkscape:version="1.1.1 (3bf5ae0d25, 2021-09-20, custom)"
   sodipodi:docname="network-workgroup.svg"
   xmlns:inkscape="http://www.inkscape.org/namespaces/inkscape"
   xmlns:sodipodi="http://sodipodi.sourceforge.net/DTD/sodipodi-0.dtd"
   xmlns="http://www.w3.org/2000/svg"
   xmlns:svg="http://www.w3.org/2000/svg">
  <sodipodi:namedview
     id="namedview11947"
     pagecolor="#ffffff"
     bordercolor="#666666"
     borderopacity="1.0"
     inkscape:pageshadow="2"
     inkscape:pageopacity="0.0"
     inkscape:pagecheckerboard="0"
     inkscape:document-units="px"
     showgrid="false"
     units="in"
     inkscape:zoom="32"
     inkscape:cx="6.046875"
     inkscape:cy="12.3125"
     inkscape:window-width="1920"
     inkscape:window-height="1006"
     inkscape:window-x="0"
     inkscape:window-y="0"
     inkscape:window-maximized="1"
     inkscape:current-layer="svg11945"
     showguides="false" />
  <defs
     id="defs11942" />
  <path
     id="path1050"
     style="fill:#363636;stroke-width:1.10188"
     d="M 11 4 A 6.9999999 6.9999999 0 0 0 6.1855469 5.921875 A 8.9999995 2.9999998 30 0 0 5.0957031 5.8046875 A 8.9999995 2.9999998 30 0 0 3.2050781 6.5 A 8.9999995 2.9999998 30 0 0 4.1933594 9.3789062 A 6.9999999 6.9999999 0 0 0 4 11 A 6.9999999 6.9999999 0 0 0 11 18 A 6.9999999 6.9999999 0 0 0 15.808594 16.085938 A 8.9999995 2.9999998 30 0 0 18.794922 15.5 A 8.9999995 2.9999998 30 0 0 17.806641 12.628906 A 6.9999999 6.9999999 0 0 0 18 11 A 6.9999999 6.9999999 0 0 0 11 4 z M 11 5 A 6 6 0 0 1 17 11 A 6 6 0 0 1 16.945312 11.769531 A 5.9999999 5.9999999 0 0 1 16.878906 12.171875 A 6 6 0 0 1 16.857422 12.273438 A 5.9999999 5.9999999 0 0 1 16.751953 12.689453 A 6 6 0 0 1 15.375 15.103516 A 7.9999992 1.9999999 30 0 1 10 12.732422 A 7.9999992 1.9999999 30 0 1 5.2617188 9.2617188 A 6 6 0 0 1 6.6230469 6.8984375 A 7.9999992 1.9999999 30 0 1 6.6269531 6.8984375 A 5.9999999 5.9999999 0 0 1 7.0058594 6.5273438 A 5.9999999 5.9999999 0 0 1 7.3867188 6.2148438 A 6 6 0 0 1 11 5 z M 4.9257812 6.6445312 A 7.9999992 1.9999999 30 0 1 5.4980469 6.6757812 A 6.9999999 6.9999999 0 0 0 4.5019531 8.4042969 A 7.9999992 1.9999999 30 0 1 4.0722656 7 A 7.9999992 1.9999999 30 0 1 4.9257812 6.6445312 z M 5.046875 10.294922 A 8.9999995 2.9999998 30 0 0 9.5 13.597656 A 8.9999995 2.9999998 30 0 0 14.589844 15.802734 A 6 6 0 0 1 11 17 A 6 6 0 0 1 5 11 A 6 6 0 0 1 5.046875 10.294922 z M 17.498047 13.601562 A 7.9999992 1.9999999 30 0 1 17.927734 15 A 7.9999992 1.9999999 30 0 1 16.5 15.330078 A 6.9999999 6.9999999 0 0 0 17.498047 13.601562 z "
     transform="scale(0.26458333)" />
</svg>
